<?xml version="1.0" standalone="no"?>
<!DOCTYPE svg PUBLIC "-//W3C//DTD SVG 1.1//EN" "http://www.w3.org/Graphics/SVG/1.1/DTD/svg11.dtd" >
<svg xmlns="http://www.w3.org/2000/svg">
<metadata>
<json>
<![CDATA[
{
	"fontFamily": "uxicon",
	"majorVersion": 2,
	"minorVersion": 5,
	"description": "Home Depot Icon Web Font\nFont generated by IcoMoon.",
	"designer": "",
	"fontURL": "https://ux.homedepot.com",
	"version": "Version 2.5",
	"fontId": "uxicon",
	"psName": "uxicon",
	"subFamily": "Regular",
	"fullName": "uxicon"
}
]]>
</json>
</metadata>
<defs>
<font id="uxicon" horiz-adv-x="1024">
<font-face units-per-em="1024" ascent="860.16" descent="-163.84" />
<missing-glyph horiz-adv-x="1024" />
<glyph unicode="&#x20;" horiz-adv-x="512" d="" />
<glyph unicode="&#x21;" glyph-name="uni21" horiz-adv-x="192" d="M96 0c-17.672 0-32 14.326-32 32v64c0 17.674 14.328 32 32 32 17.674 0 32-14.326 32-32v-64c0-17.674-14.326-32-32-32zM96 224c-17.672 0-32 14.326-32 32v416c0 17.672 14.328 32 32 32 17.674 0 32-14.328 32-32v-416c0-17.674-14.326-32-32-32z" />
<glyph unicode="&#x22;" glyph-name="uni22" horiz-adv-x="320" d="M96 512c-17.672 0-32 14.326-32 32v192c0 17.674 14.328 32 32 32 17.674 0 32-14.326 32-32v-192c0-17.674-14.326-32-32-32zM224 512c-17.672 0-32 14.326-32 32v192c0 17.674 14.328 32 32 32 17.674 0 32-14.326 32-32v-192c0-17.674-14.326-32-32-32z" />
<glyph unicode="&#x23;" glyph-name="uni23" horiz-adv-x="832" d="M736 512h-127.366l30.744 153.724c3.464 17.33-7.774 34.188-25.104 37.654-17.32 3.458-34.188-7.772-37.654-25.104l-33.254-166.274h-190.73l30.744 153.724c3.464 17.33-7.774 34.188-25.104 37.654-17.322 3.458-34.188-7.772-37.654-25.104l-33.256-166.274h-127.366c-17.674 0-32-14.328-32-32s14.326-32 32-32h114.566l-38.4-192h-140.166c-17.672 0-32-14.326-32-32s14.328-32 32-32h127.366l-30.744-153.724c-3.464-17.33 7.774-34.188 25.104-37.654 2.12-0.424 4.228-0.626 6.31-0.626 14.94 0 28.3 10.52 31.344 25.73l33.254 166.274h190.73l-30.744-153.724c-3.464-17.33 7.774-34.188 25.104-37.654 2.12-0.424 4.228-0.626 6.31-0.626 14.94 0 28.3 10.52 31.344 25.73l33.256 166.274h127.366c17.674 0 32 14.326 32 32s-14.326 32-32 32h-114.566l38.4 192h140.166c17.674 0 32 14.328 32 32s-14.326 32-32 32zM492.166 256h-190.732l38.4 192h190.732l-38.4-192z" />
<glyph unicode="&#x24;" glyph-name="uni24" horiz-adv-x="704" d="M542.312 324.622c-44.764 22.382-101.526 37.968-158.31 52.338v262.106c61.736-3.582 110.828-16.888 142.802-28.324 40.632-14.53 63.316-29.282 63.448-29.368 14.704-9.802 34.57-5.828 44.376 8.876s5.83 34.572-8.876 44.376c-3.972 2.648-93.128 60.95-241.752 68.552v32.822c0 17.672-14.326 32-32 32s-32-14.328-32-32v-32.694c-90.708-3.964-158.33-25.23-201.26-63.39-36.322-32.286-54.74-75.324-54.74-127.916 0-55.59 32.868-100.21 97.69-132.622 44.764-22.382 101.526-37.968 158.31-52.338v-262.104c-61.736 3.58-110.826 16.886-142.802 28.322-40.284 14.406-62.924 29.028-63.53 29.422-14.696 9.732-34.508 5.75-44.294-8.93-9.802-14.706-5.83-34.572 8.876-44.376 3.97-2.648 93.126-60.952 241.75-68.554v-32.82c0-17.674 14.326-32 32-32s32 14.326 32 32v32.694c90.708 3.964 158.33 25.23 201.26 63.388 36.322 32.288 54.74 75.326 54.74 127.918 0 55.59-32.866 100.21-97.688 132.622zM190.312 436.622c-29.012 14.504-62.312 36.182-62.312 75.378 0 33.994 10.878 60.19 33.26 80.084 31.41 27.92 84.732 43.75 158.74 47.196v-246.172c-47.98 12.402-94.518 25.928-129.688 43.514zM542.74 111.918c-31.41-27.922-84.73-43.752-158.74-47.196v246.172c47.98-12.404 94.518-25.932 129.69-43.516 29.010-14.504 62.31-36.18 62.31-75.378 0-33.994-10.878-60.19-33.26-80.082z" />
<glyph unicode="&#x25;" glyph-name="uni25" horiz-adv-x="768" d="M192 384c-56.55 0-93.32 17.916-112.414 54.77-15.586 30.088-15.586 66.588-15.586 105.23s0 75.142 15.586 105.23c19.094 36.854 55.864 54.77 112.414 54.77s93.32-17.916 112.414-54.77c15.586-30.088 15.586-66.588 15.586-105.23s0-75.142-15.586-105.23c-19.094-36.854-55.864-54.77-112.414-54.77zM192 640c-61.462 0-64-19.904-64-96s2.538-96 64-96 64 19.904 64 96-2.536 96-64 96zM576 0c-56.548 0-93.32 17.916-112.414 54.772-15.586 30.086-15.586 66.586-15.586 105.228s0 75.142 15.586 105.228c19.094 36.856 55.866 54.772 112.414 54.772s93.32-17.916 112.414-54.772c15.586-30.086 15.586-66.586 15.586-105.228s0-75.142-15.586-105.228c-19.094-36.856-55.864-54.772-112.414-54.772zM576 256c-61.462 0-64-19.904-64-96s2.538-96 64-96 64 19.904 64 96-2.536 96-64 96zM159.972-0.002c-6.336 0-12.736 1.876-18.322 5.788-14.478 10.134-18 30.088-7.866 44.566l448 640c10.136 14.478 30.092 17.998 44.566 7.866 14.478-10.136 17.998-30.088 7.864-44.566l-448-640c-6.224-8.896-16.152-13.654-26.242-13.654z" />
<glyph unicode="&#x26;" glyph-name="uni26" horiz-adv-x="640" d="M544 320h-192c-17.674 0-32-14.326-32-32s14.326-32 32-32h96v-32c0-63.668-8.398-100.432-28.082-122.928-22.13-25.292-64.048-37.072-131.918-37.072s-109.788 11.78-131.918 37.072c-19.684 22.496-28.082 59.26-28.082 122.928s8.398 100.432 28.082 122.928c22.132 25.292 64.050 37.072 131.918 37.072 17.672 0 32 14.328 32 32s-14.328 32-32 32c-40.078 0-64.664 5.918-77.372 18.628-12.708 12.708-18.628 37.294-18.628 77.372s5.918 64.664 18.628 77.372c12.708 12.71 37.294 18.628 77.372 18.628s64.664-5.918 77.374-18.628c12.706-12.708 18.626-37.294 18.626-77.372 0-17.672 14.326-32 32-32s32 14.328 32 32c0 58.96-11.526 96.782-37.374 122.628-25.844 25.846-63.664 37.372-122.626 37.372s-96.78-11.526-122.628-37.372c-25.846-25.846-37.372-63.668-37.372-122.628 0-54.988 10.032-91.584 32.348-117.234-21.242-9.342-38.558-21.842-52.43-37.694-38.7-44.228-43.918-108.264-43.918-165.072s5.218-120.844 43.918-165.072c35.178-40.204 92.4-58.928 180.082-58.928s144.904 18.724 180.082 58.928c38.702 44.228 43.918 108.264 43.918 165.072v32h32c17.674 0 32 14.326 32 32s-14.326 32-32 32z" />
<glyph unicode="&#x27;" glyph-name="uni27" horiz-adv-x="192" d="M96 512c-17.672 0-32 14.326-32 32v192c0 17.674 14.328 32 32 32 17.674 0 32-14.326 32-32v-192c0-17.674-14.326-32-32-32z" />
<glyph unicode="&#x28;" glyph-name="uni28" horiz-adv-x="384" d="M287.988-192c-7.478 0-14.99 2.606-21.060 7.918-65.908 57.67-117.312 133.562-152.786 225.57-32.802 85.084-50.142 181.39-50.142 278.512 0 97.12 17.338 193.428 50.142 278.512 35.474 92.008 86.878 167.902 152.786 225.57 13.302 11.638 33.52 10.292 45.154-3.010 11.638-13.3 10.292-33.516-3.010-45.154-113.382-99.21-181.072-269.646-181.072-455.918s67.69-356.708 181.072-455.918c13.3-11.636 14.648-31.854 3.010-45.154-6.326-7.23-15.186-10.928-24.094-10.928z" />
<glyph unicode="&#x29;" glyph-name="uni29" horiz-adv-x="384" d="M96.012-192c7.478 0 14.99 2.606 21.060 7.918 65.908 57.67 117.312 133.562 152.786 225.57 32.802 85.084 50.142 181.39 50.142 278.512 0 97.12-17.338 193.428-50.142 278.512-35.474 92.008-86.878 167.902-152.786 225.57-13.302 11.638-33.52 10.292-45.154-3.010-11.638-13.3-10.292-33.516 3.010-45.154 113.382-99.21 181.072-269.646 181.072-455.918s-67.69-356.708-181.072-455.918c-13.3-11.636-14.648-31.854-3.010-45.154 6.326-7.23 15.186-10.928 24.094-10.928z" />
<glyph unicode="&#x2a;" glyph-name="uni2A" horiz-adv-x="576" d="M497.75 442.626l-152.060 101.374 152.060 101.374c14.706 9.804 18.68 29.672 8.876 44.376-9.802 14.706-29.672 18.678-44.376 8.876l-142.25-94.834v132.208c0 17.672-14.328 32-32 32s-32-14.328-32-32v-132.208l-142.25 94.834c-14.704 9.802-34.574 5.83-44.376-8.876-9.802-14.704-5.83-34.572 8.876-44.376l152.062-101.374-152.060-101.374c-14.706-9.804-18.678-29.672-8.876-44.376 6.166-9.25 16.314-14.252 26.656-14.252 6.098 0 12.266 1.74 17.72 5.376l142.248 94.834v-132.208c0-17.672 14.328-32 32-32s32 14.328 32 32v132.208l142.25-94.834c5.456-3.636 11.622-5.376 17.72-5.376 10.34 0 20.488 5.004 26.654 14.252 9.806 14.704 5.832 34.572-8.874 44.376z" />
<glyph unicode="&#x2b;" glyph-name="uni2B" horiz-adv-x="576" d="M480 320h-160v160c0 17.672-14.326 32-32 32-17.672 0-32-14.328-32-32v-160h-160c-17.672 0-32-14.326-32-32s14.328-32 32-32h160v-160c0-17.674 14.328-32 32-32 17.674 0 32 14.326 32 32v160h160c17.674 0 32 14.326 32 32s-14.326 32-32 32z" />
<glyph unicode="&#x2c;" glyph-name="uni2C" horiz-adv-x="256" d="M192 96c0 17.674-14.326 32-32 32h-64c-17.672 0-32-14.326-32-32s14.328-32 32-32h30.51c-8.574-90.34-51.296-135.47-53.31-137.546l0.162 0.162c-5.784-5.792-9.362-13.786-9.362-22.616 0-17.674 14.328-32 32-32 8.844 0 16.848 3.588 22.64 9.386 3.118 3.122 73.36 75.092 73.36 214.614z" />
<glyph unicode="&#x2d;" glyph-name="uni2D" horiz-adv-x="448" d="M352 320h-256c-17.672 0-32-14.326-32-32s14.328-32 32-32h256c17.674 0 32 14.326 32 32s-14.326 32-32 32z" />
<glyph unicode="&#x2e;" glyph-name="uni2E" horiz-adv-x="192" d="M96 0c-17.672 0-32 14.326-32 32v64c0 17.674 14.328 32 32 32 17.674 0 32-14.326 32-32v-64c0-17.674-14.326-32-32-32z" />
<glyph unicode="&#x2f;" glyph-name="uni2F" horiz-adv-x="576" d="M95.99-192.008c-3.958 0-7.976 0.738-11.876 2.296-16.41 6.562-24.39 25.186-17.826 41.596l384 960c6.562 16.41 25.184 24.394 41.596 17.826 16.408-6.564 24.39-25.186 17.826-41.596l-384-960c-5.002-12.51-17.020-20.122-29.72-20.122z" />
<glyph unicode="&#x30;" glyph-name="uni30" horiz-adv-x="640" d="M320 0c-102.472 0-171.748 34.058-211.784 104.124-38.962 68.184-44.216 163.566-44.216 247.876 0 150.242 22.352 209.614 44.216 247.876 40.038 70.064 109.312 104.124 211.784 104.124s171.746-34.060 211.784-104.124c38.962-68.184 44.216-163.566 44.216-247.876 0-150.242-22.352-209.614-44.216-247.876-40.038-70.066-109.31-104.124-211.784-104.124zM320 640c-103.208 0-138.584-41.022-156.216-71.876-25.082-43.894-35.784-108.53-35.784-216.124 0-107.596 10.702-172.23 35.784-216.124 17.632-30.854 53.008-71.876 156.216-71.876s138.584 41.022 156.216 71.876c25.084 43.894 35.784 108.528 35.784 216.124 0 107.594-10.702 172.23-35.784 216.124-17.632 30.854-53.008 71.876-156.216 71.876z" />
<glyph unicode="&#x31;" glyph-name="uni31" horiz-adv-x="320" d="M224 0c-17.672 0-32 14.326-32 32v562.746l-73.372-73.374c-12.498-12.496-32.758-12.496-45.256 0-12.496 12.498-12.496 32.758 0 45.256l128 128c9.154 9.152 22.916 11.89 34.874 6.936 11.958-4.952 19.754-16.622 19.754-29.564v-640c0-17.674-14.326-32-32-32z" />
<glyph unicode="&#x32;" glyph-name="uni32" horiz-adv-x="640" d="M544 0h-448c-17.672 0-32 14.326-32 32 0 97.518 31.484 171.062 96.248 224.832 54.568 45.304 124.96 69.314 187.068 90.498 105.178 35.872 164.684 59.72 164.684 132.67 0 64.454-8.874 99.618-30.626 121.372-26.354 26.354-77.632 38.628-161.374 38.628s-135.020-12.274-161.372-38.628c-21.754-21.754-30.628-56.918-30.628-121.372 0-17.672-14.328-32-32-32s-32 14.328-32 32c0 60.9 5.982 123.236 49.372 166.628 39.68 39.678 103.406 57.372 206.628 57.372s166.95-17.694 206.626-57.372c43.394-43.392 49.374-105.728 49.374-166.628 0-55.974-22.886-99.276-69.968-132.378-38.064-26.762-86.634-43.33-138.054-60.866-59.658-20.348-121.346-41.386-166.846-79.164-42.82-35.55-66.006-81.684-71.72-143.592h414.588c17.674 0 32-14.326 32-32s-14.326-32-32-32z" />
<glyph unicode="&#x33;" glyph-name="uni33" horiz-adv-x="640" d="M525.072 332.082c-8.546 7.478-18.208 14.104-29.046 19.918 10.838 5.814 20.5 12.44 29.046 19.918 45.14 39.496 50.928 95.61 50.928 140.082s-5.79 100.586-50.928 140.082c-40.48 35.42-105.644 51.918-205.072 51.918-88.288 0-148.548-12.752-189.642-40.134-38.044-25.35-59.21-63.48-64.704-116.568-1.82-17.58 10.956-33.304 28.536-35.124 17.576-1.814 33.304 10.956 35.124 28.536 4.092 39.538 10.278 99.29 190.686 99.29 81.884 0 135.18-11.802 162.928-36.082 20.65-18.068 29.072-44.7 29.072-91.918s-8.422-73.85-29.072-91.918c-27.724-24.258-80.954-36.060-162.716-36.082h-32.212c-17.672 0-32-14.328-32-32s14.328-32 32-32h31.96c0.012 0 0.026-0.002 0.038-0.002 81.884 0 135.18-11.802 162.928-36.084 20.652-18.064 29.074-44.696 29.074-91.914s-8.422-73.85-29.072-91.918c-27.748-24.28-81.042-36.082-162.928-36.082-165.5 0-184.836 48.016-190.458 97.196-2.004 17.56-17.864 30.156-35.426 28.16-17.558-2.006-30.166-17.868-28.16-35.426 5.968-52.216 27.466-89.722 65.722-114.666 41.092-26.788 100.93-39.264 188.322-39.264 99.428 0 164.592 16.498 205.072 51.918 45.14 39.496 50.928 95.61 50.928 140.082s-5.788 100.586-50.928 140.082z" />
<glyph unicode="&#x34;" glyph-name="uni34" horiz-adv-x="640" d="M416 0c-17.674 0-32 14.326-32 32v160h-288c-11.988 0-22.968 6.7-28.454 17.358s-4.554 23.488 2.414 33.242l320 448c8.086 11.32 22.554 16.118 35.804 11.874 13.25-4.246 22.236-16.562 22.236-30.474v-416h96c17.674 0 32-14.326 32-32s-14.326-32-32-32h-96v-160c0-17.674-14.326-32-32-32zM158.182 256h225.818v316.146l-225.818-316.146z" />
<glyph unicode="&#x35;" glyph-name="uni35" horiz-adv-x="640" d="M320 0c-60.446 0-107.798 6.080-144.766 18.59-37.752 12.776-65.046 32.24-83.442 59.506-9.884 14.65-6.020 34.542 8.63 44.424 14.652 9.888 34.542 6.018 44.424-8.63 8.326-12.342 33.66-49.89 175.154-49.89 81.884 0 135.18 11.802 162.928 36.082 20.65 18.068 29.072 44.7 29.072 91.918s-8.422 73.85-29.072 91.918c-27.748 24.28-81.042 36.082-162.928 36.082h-160c-9.042 0-17.66 3.824-23.726 10.528s-9.014 15.66-8.114 24.658l32 320c1.636 16.356 15.4 28.814 31.84 28.814h352c17.674 0 32-14.328 32-32s-14.326-32-32-32h-323.040l-25.6-256h124.64c99.428 0 164.592-16.498 205.072-51.916 45.14-39.498 50.928-95.612 50.928-140.084s-5.79-100.586-50.928-140.082c-40.48-35.42-105.644-51.918-205.072-51.918z" />
<glyph unicode="&#x36;" glyph-name="uni36" horiz-adv-x="640" d="M114.928 51.918c40.48-35.42 105.644-51.918 205.072-51.918s164.592 16.498 205.072 51.918c45.14 39.496 50.928 95.61 50.928 140.082s-5.788 100.586-50.928 140.082c-40.48 35.42-105.644 51.918-205.072 51.918-89.366 0-151.038-13.336-192-41.752v169.752c0 47.218 8.422 73.85 29.072 91.918 27.748 24.28 81.042 36.082 162.928 36.082 180.41 0 186.592-59.752 190.684-99.292 1.82-17.582 17.564-30.358 35.124-28.538 17.58 1.818 30.356 17.544 28.536 35.124-5.494 53.088-26.658 91.218-64.702 116.57-41.092 27.382-101.354 40.136-189.642 40.136-99.428 0-164.592-16.498-205.072-51.918-45.14-39.496-50.928-95.61-50.928-140.082v-320c0-44.472 5.788-100.586 50.928-140.082zM157.072 283.918c27.748 24.28 81.042 36.082 162.928 36.082s135.18-11.802 162.928-36.082c20.648-18.068 29.072-44.7 29.072-91.918s-8.422-73.85-29.072-91.918c-27.748-24.28-81.042-36.082-162.928-36.082-81.884 0-135.18 11.802-162.928 36.082-20.65 18.068-29.072 44.7-29.072 91.918s8.422 73.85 29.072 91.918z" />
<glyph unicode="&#x37;" glyph-name="uni37" horiz-adv-x="640" d="M223.976-0.008c-4.81 0-9.692 1.090-14.286 3.386-15.808 7.902-22.214 27.124-14.312 42.932l296.846 593.69h-396.224c-17.672 0-32 14.328-32 32s14.328 32 32 32h448c11.090 0 21.39-5.742 27.22-15.176s6.362-21.214 1.4-31.134l-320-640c-5.604-11.214-16.906-17.696-28.644-17.698z" />
<glyph unicode="&#x38;" glyph-name="uni38" horiz-adv-x="640" d="M525.072 332.082c-8.546 7.478-18.208 14.104-29.046 19.918 10.838 5.814 20.5 12.44 29.046 19.918 45.14 39.496 50.928 95.61 50.928 140.082s-5.79 100.586-50.928 140.082c-40.48 35.42-105.644 51.918-205.072 51.918s-164.592-16.498-205.072-51.918c-45.14-39.496-50.928-95.61-50.928-140.082s5.788-100.586 50.928-140.082c8.546-7.478 18.208-14.104 29.046-19.918-10.838-5.814-20.5-12.44-29.046-19.918-45.138-39.496-50.928-95.61-50.928-140.082s5.788-100.586 50.928-140.082c40.48-35.42 105.644-51.918 205.072-51.918s164.592 16.498 205.072 51.918c45.14 39.496 50.928 95.61 50.928 140.082s-5.788 100.586-50.928 140.082zM157.072 603.918c27.748 24.28 81.042 36.082 162.928 36.082 81.884 0 135.18-11.802 162.928-36.082 20.65-18.068 29.072-44.7 29.072-91.918s-8.422-73.85-29.072-91.918c-27.748-24.28-81.042-36.082-162.928-36.082s-135.18 11.802-162.928 36.082c-20.648 18.068-29.072 44.7-29.072 91.918s8.424 73.85 29.072 91.918zM482.928 100.082c-27.748-24.28-81.042-36.082-162.928-36.082s-135.18 11.802-162.928 36.082c-20.648 18.068-29.072 44.7-29.072 91.918s8.422 73.85 29.072 91.916c27.748 24.282 81.042 36.084 162.928 36.084 81.884 0 135.18-11.802 162.928-36.084 20.65-18.066 29.072-44.698 29.072-91.916s-8.422-73.85-29.072-91.918z" />
<glyph unicode="&#x39;" glyph-name="uni39" horiz-adv-x="640" d="M525.072 652.082c-40.48 35.42-105.644 51.918-205.072 51.918s-164.592-16.498-205.072-51.918c-45.14-39.496-50.928-95.61-50.928-140.082s5.788-100.586 50.928-140.082c40.48-35.42 105.644-51.918 205.072-51.918 89.366 0 151.038 13.336 192 41.752v-169.752c0-47.218-8.422-73.85-29.072-91.918-27.748-24.28-81.042-36.082-162.928-36.082-180.41 0-186.592 59.752-190.684 99.292-1.82 17.582-17.564 30.358-35.124 28.538-17.58-1.818-30.356-17.544-28.536-35.124 5.494-53.088 26.658-91.218 64.702-116.57 41.092-27.382 101.354-40.136 189.642-40.136 99.428 0 164.592 16.498 205.072 51.918 45.14 39.496 50.928 95.61 50.928 140.082v320c0 44.472-5.788 100.586-50.928 140.082zM482.928 420.082c-27.748-24.28-81.042-36.082-162.928-36.082s-135.18 11.802-162.928 36.082c-20.648 18.068-29.072 44.7-29.072 91.918s8.422 73.85 29.072 91.918c27.748 24.28 81.042 36.082 162.928 36.082 81.884 0 135.18-11.802 162.928-36.082 20.65-18.068 29.072-44.7 29.072-91.918s-8.422-73.85-29.072-91.918z" />
<glyph unicode="&#x3a;" glyph-name="uni3A" horiz-adv-x="192" d="M96 0c-17.672 0-32 14.326-32 32v64c0 17.674 14.328 32 32 32 17.674 0 32-14.326 32-32v-64c0-17.674-14.326-32-32-32zM96 384c-17.672 0-32 14.326-32 32v64c0 17.674 14.328 32 32 32 17.674 0 32-14.326 32-32v-64c0-17.674-14.326-32-32-32z" />
<glyph unicode="&#x3b;" glyph-name="uni3B" horiz-adv-x="256" d="M192 96c0 17.674-14.326 32-32 32h-64c-17.672 0-32-14.326-32-32s14.328-32 32-32h30.51c-8.574-90.34-51.296-135.47-53.31-137.546l0.162 0.162c-5.784-5.792-9.362-13.786-9.362-22.616 0-17.674 14.328-32 32-32 8.844 0 16.848 3.588 22.64 9.386 3.118 3.122 73.36 75.092 73.36 214.614zM160 384c-17.672 0-32 14.326-32 32v64c0 17.674 14.328 32 32 32 17.674 0 32-14.326 32-32v-64c0-17.674-14.326-32-32-32z" />
<glyph unicode="&#x3c;" glyph-name="uni3C" horiz-adv-x="576" d="M479.974 63.992c-4.808 0-9.692 1.090-14.286 3.386l-384 192c-10.84 5.42-17.688 16.5-17.688 28.622s6.848 23.202 17.69 28.622l384 192c15.812 7.9 35.030 1.496 42.932-14.312 7.904-15.806 1.496-35.028-14.31-42.932l-326.758-163.378 326.756-163.378c15.806-7.902 22.214-27.124 14.31-42.932-5.604-11.214-16.908-17.696-28.646-17.698z" />
<glyph unicode="&#x3d;" glyph-name="uni3D" horiz-adv-x="576" d="M480 384h-384c-17.672 0-32 14.328-32 32s14.328 32 32 32h384c17.674 0 32-14.328 32-32s-14.326-32-32-32zM480 128h-384c-17.672 0-32 14.326-32 32s14.328 32 32 32h384c17.674 0 32-14.326 32-32s-14.326-32-32-32z" />
<glyph unicode="&#x3e;" glyph-name="uni3E" horiz-adv-x="576" d="M96.026 63.992c4.808 0 9.692 1.090 14.286 3.386l384 192c10.84 5.42 17.688 16.5 17.688 28.622s-6.848 23.202-17.69 28.622l-384 192c-15.812 7.9-35.030 1.496-42.932-14.312-7.904-15.806-1.496-35.028 14.31-42.932l326.758-163.378-326.756-163.378c-15.806-7.902-22.214-27.124-14.31-42.932 5.604-11.214 16.908-17.696 28.646-17.698z" />
<glyph unicode="&#x3f;" glyph-name="uni3F" horiz-adv-x="576" d="M288 192c-17.672 0-32 14.326-32 32v64c0 17.674 14.328 32 32 32 67.87 0 109.788 11.78 131.918 37.072 19.684 22.496 28.082 59.26 28.082 122.928s-8.398 100.432-28.082 122.928c-22.13 25.292-64.048 37.072-131.918 37.072s-109.788-11.78-131.918-37.072c-19.684-22.496-28.082-59.26-28.082-122.928 0-17.672-14.328-32-32-32s-32 14.328-32 32c0 56.808 5.218 120.844 43.918 165.072 35.178 40.204 92.4 58.928 180.082 58.928s144.904-18.724 180.082-58.928c38.702-44.228 43.918-108.264 43.918-165.072s-5.216-120.844-43.918-165.072c-30.704-35.090-78.198-53.816-148.082-58.014v-32.914c0-17.674-14.326-32-32-32zM288 0c-17.672 0-32 14.326-32 32v64c0 17.674 14.328 32 32 32 17.674 0 32-14.326 32-32v-64c0-17.674-14.326-32-32-32z" />
<glyph unicode="&#x40;" glyph-name="uni40" horiz-adv-x="832" d="M682.628 618.628c-57.448 57.446-144.66 85.372-266.628 85.372-121.966 0-209.18-27.926-266.628-85.372-57.446-57.448-85.372-144.662-85.372-266.628s27.926-209.18 85.372-266.626c57.448-57.448 144.662-85.374 266.628-85.374 112.002 0 194.27 23.388 251.502 71.502 13.528 11.372 15.276 31.558 3.902 45.086-11.376 13.532-31.562 15.272-45.086 3.902-45.216-38.012-114.012-56.49-210.318-56.49-104.128 0-176.54 21.794-221.372 66.626-44.834 44.834-66.628 117.248-66.628 221.374 0 104.128 21.794 176.54 66.628 221.372 44.834 44.834 117.244 66.628 221.372 66.628 104.126 0 176.54-21.794 221.374-66.628 44.832-44.832 66.626-117.244 66.626-221.372v-32c0-19.242-6.236-64-64-64s-64 44.758-64 64v32c0 58.96-11.526 96.782-37.374 122.628-25.844 25.846-63.664 37.372-122.626 37.372s-96.782-11.526-122.628-37.372c-25.846-25.846-37.372-63.668-37.372-122.628s11.526-96.782 37.372-122.626c25.848-25.848 63.668-37.374 122.628-37.374s96.782 11.526 122.626 37.374c1.17 1.17 2.3 2.374 3.412 3.594 22.548-25.912 56.572-40.968 97.962-40.968 76.56 0 128 51.44 128 128v32c0 121.966-27.926 209.18-85.372 266.628zM493.374 274.626c-12.71-12.706-37.296-18.626-77.374-18.626s-64.664 5.92-77.374 18.626c-12.706 12.71-18.626 37.296-18.626 77.374s5.92 64.664 18.626 77.372c12.71 12.71 37.296 18.628 77.374 18.628s64.664-5.918 77.374-18.628c12.706-12.708 18.626-37.294 18.626-77.372s-5.92-64.664-18.626-77.374z" />
<glyph unicode="&#x41;" glyph-name="uni41" horiz-adv-x="704" d="M637.71 43.882l-256 640c-4.858 12.152-16.624 20.118-29.71 20.118-13.084 0-24.852-7.966-29.71-20.116l-256-640c-6.564-16.408 1.416-35.034 17.826-41.596 16.41-6.556 35.034 1.414 41.596 17.826l68.752 171.886h315.072l68.754-171.884c5.004-12.512 17.020-20.124 29.718-20.124 3.958 0 7.978 0.738 11.876 2.294 16.408 6.566 24.392 25.188 17.826 41.596zM220.066 256l131.934 329.836 131.936-329.836h-263.87z" />
<glyph unicode="&#x42;" glyph-name="uni42" horiz-adv-x="640" d="M320 0h-224c-17.672 0-32 14.326-32 32v640c0 17.672 14.328 32 32 32h224c77.458 0 127.792-11.842 163.2-38.4 40.914-30.684 60.8-80.928 60.8-153.6 0-71.436-19.218-121.2-58.73-152.016 8.884-3.926 16.998-8.37 24.48-13.358 45.2-30.132 66.25-79.266 66.25-154.626s-21.050-124.494-66.25-154.624c-39.292-26.198-96.042-37.376-189.75-37.376zM128 64h192c162.992 0 192 33.54 192 128 0 37.684-4.484 79.2-37.75 101.376-27.622 18.414-75.196 26.624-154.25 26.624h-192v-256zM320 384c61.86 0 101.514 8.134 124.8 25.6 15.11 11.334 35.2 34.278 35.2 102.4s-20.090 91.066-35.2 102.4c-23.286 17.466-62.94 25.6-124.8 25.6h-192v-256h192z" />
<glyph unicode="&#x43;" glyph-name="uni43" horiz-adv-x="704" d="M384 0c-107.568 0-185.914 28.226-239.514 86.292-54.158 58.672-80.486 145.586-80.486 265.708 0 127.814 20.84 209.442 67.572 264.67 50.414 59.58 130.624 87.33 252.428 87.33 112.208 0 188.218-23.236 239.216-73.126 12.632-12.358 12.856-32.62 0.498-45.252-12.36-12.632-32.624-12.858-45.254-0.496-38.264 37.438-100.058 54.874-194.46 54.874-133.42 0-180.082-36.908-203.572-64.67-36.26-42.852-52.428-111.73-52.428-223.33 0-103.282 20.776-175.996 63.514-222.292 40.812-44.216 103.774-65.708 192.486-65.708 81.876 0 141.514 18.184 182.334 55.588 13.030 11.944 33.272 11.060 45.208-1.97 11.944-13.032 11.056-33.274-1.97-45.21-53.166-48.724-126.95-72.408-225.572-72.408z" />
<glyph unicode="&#x44;" glyph-name="uni44" horiz-adv-x="704" d="M320 0h-224c-17.672 0-32 14.326-32 32v640c0 17.672 14.328 32 32 32h224c121.8 0 202.014-27.75 252.428-87.33 46.732-55.228 67.572-136.856 67.572-264.67 0-120.122-26.328-207.036-80.486-265.708-53.602-58.066-131.948-86.292-239.514-86.292zM128 64h192c88.71 0 151.674 21.492 192.486 65.708 42.738 46.296 63.514 119.010 63.514 222.292 0 111.6-16.17 180.478-52.428 223.33-23.492 27.762-70.152 64.67-203.572 64.67h-192v-576z" />
<glyph unicode="&#x45;" glyph-name="uni45" horiz-adv-x="640" d="M544 64h-416v256h352c17.674 0 32 14.328 32 32s-14.326 32-32 32h-352v256h416c17.674 0 32 14.328 32 32s-14.326 32-32 32h-448c-17.672 0-32-14.328-32-32v-640c0-17.674 14.328-32 32-32h448c17.674 0 32 14.326 32 32s-14.326 32-32 32z" />
<glyph unicode="&#x46;" glyph-name="uni46" horiz-adv-x="640" d="M544 704h-448c-17.672 0-32-14.328-32-32v-640c0-17.674 14.328-32 32-32s32 14.326 32 32v288h352c17.674 0 32 14.328 32 32s-14.326 32-32 32h-352v256h416c17.674 0 32 14.328 32 32s-14.326 32-32 32z" />
<glyph unicode="&#x47;" glyph-name="uni47" horiz-adv-x="704" d="M384 0c-107.568 0-185.914 28.226-239.514 86.292-54.158 58.672-80.486 145.586-80.486 265.708 0 127.814 20.84 209.442 67.572 264.67 50.414 59.58 130.624 87.33 252.428 87.33 112.196 0 188.2-23.23 239.2-73.106 12.634-12.358 12.862-32.618 0.502-45.252-12.356-12.636-32.616-12.862-45.252-0.504-38.27 37.43-100.060 54.862-194.45 54.862-133.42 0-180.082-36.908-203.572-64.67-36.258-42.852-52.428-111.73-52.428-223.33 0-103.282 20.776-175.996 63.514-222.292 40.812-44.216 103.774-65.708 192.486-65.708 88.164 0 151.128 21.35 192.008 65.2v190.8h-96.008c-17.674 0-32 14.328-32 32s14.326 32 32 32h128.008c17.674 0 32-14.328 32-32v-234.792c0-7.394-2.562-14.56-7.25-20.284-53.45-65.22-134.816-96.924-248.758-96.924z" />
<glyph unicode="&#x48;" glyph-name="uni48" horiz-adv-x="640" d="M544 704c-17.674 0-32-14.328-32-32v-288h-384v288c0 17.672-14.328 32-32 32s-32-14.328-32-32v-640c0-17.674 14.328-32 32-32s32 14.326 32 32v288h384v-288c0-17.674 14.326-32 32-32s32 14.326 32 32v640c0 17.672-14.326 32-32 32z" />
<glyph unicode="&#x49;" glyph-name="uni49" horiz-adv-x="192" d="M96 0c-17.672 0-32 14.326-32 32v640c0 17.672 14.328 32 32 32s32-14.328 32-32v-640c0-17.674-14.328-32-32-32z" />
<glyph unicode="&#x4a;" glyph-name="uni4A" horiz-adv-x="512" d="M224 0c-63.9 0-115.202 22.444-152.48 66.708-11.384 13.52-9.654 33.706 3.864 45.090 13.52 11.384 33.704 9.654 45.090-3.864 24.896-29.562 58.76-43.934 103.526-43.934 85.296 0 114.474 30.352 129.002 53.18 21.438 33.688 30.998 86.37 30.998 170.82v384c0 17.672 14.328 32 32 32 17.674 0 32-14.328 32-32v-384c0-98.654-12.262-160.018-41.002-205.18-35.464-55.73-95.324-82.82-182.998-82.82z" />
<glyph unicode="&#x4b;" glyph-name="uni4B" horiz-adv-x="640" d="M563.51 57.364l-383.026 294.636 383.026 294.636c14.010 10.776 16.626 30.868 5.854 44.876-10.774 14.006-30.866 16.63-44.874 5.854l-396.49-304.994v279.628c0 17.672-14.328 32-32 32s-32-14.328-32-32v-640c0-17.674 14.328-32 32-32s32 14.326 32 32v279.628l396.49-304.992c5.814-4.474 12.676-6.638 19.486-6.638 9.594 0.002 19.086 4.298 25.386 12.492 10.774 14.008 8.158 34.098-5.852 44.874z" />
<glyph unicode="&#x4c;" glyph-name="uni4C" horiz-adv-x="640" d="M544 0h-448c-17.672 0-32 14.326-32 32v640c0 17.672 14.328 32 32 32s32-14.328 32-32v-608h416c17.674 0 32-14.326 32-32s-14.326-32-32-32z" />
<glyph unicode="&#x4d;" glyph-name="uni4D" horiz-adv-x="960" d="M863.966-0.006c-14.944 0-28.302 10.518-31.346 25.73l-108.26 541.298-215.12-484.020c-5.134-11.554-16.594-19.002-29.24-19.002s-24.106 7.448-29.242 19.004l-215.12 484.020-108.26-541.298c-3.466-17.33-20.332-28.564-37.654-25.104-17.33 3.466-28.57 20.324-25.104 37.654l128 640c2.734 13.668 14 23.994 27.852 25.53 13.866 1.534 27.108-6.072 32.768-18.808l226.76-510.206 226.758 510.204c5.66 12.738 18.93 20.352 32.768 18.808 13.854-1.536 25.12-11.862 27.854-25.53l128-640c3.464-17.33-7.774-34.188-25.104-37.654-2.118-0.422-4.232-0.626-6.31-0.626z" />
<glyph unicode="&#x4e;" glyph-name="uni4E" horiz-adv-x="640" d="M544.004-0.002c-10.246 0-20.118 4.934-26.218 13.65l-389.786 556.836v-538.484c0-17.674-14.328-32-32-32s-32 14.326-32 32v640c0 13.966 9.058 26.32 22.38 30.52 13.32 4.2 27.826-0.726 35.836-12.168l389.784-556.836v538.484c0 17.672 14.326 32 32 32s32-14.328 32-32v-640c0-13.966-9.058-26.32-22.378-30.52-3.172-1-6.414-1.482-9.618-1.482z" />
<glyph unicode="&#x4f;" glyph-name="uni4F" horiz-adv-x="768" d="M384 0c-107.568 0-185.914 28.226-239.514 86.292-54.158 58.672-80.486 145.586-80.486 265.708 0 127.814 20.84 209.442 67.572 264.67 50.414 59.58 130.624 87.33 252.428 87.33 121.8 0 202.014-27.75 252.428-87.33 46.732-55.228 67.572-136.856 67.572-264.67 0-120.122-26.328-207.036-80.486-265.708-53.602-58.066-131.948-86.292-239.514-86.292zM384 640c-133.42 0-180.082-36.908-203.572-64.67-36.258-42.852-52.428-111.73-52.428-223.33 0-103.282 20.776-175.996 63.514-222.292 40.812-44.216 103.774-65.708 192.486-65.708 88.71 0 151.674 21.492 192.486 65.708 42.738 46.296 63.514 119.010 63.514 222.292 0 111.6-16.17 180.478-52.428 223.33-23.492 27.762-70.152 64.67-203.572 64.67z" />
<glyph unicode="&#x50;" glyph-name="uni50" horiz-adv-x="640" d="M96 0c-17.672 0-32 14.326-32 32v640c0 17.672 14.328 32 32 32h224c93.708 0 150.458-11.178 189.75-37.374 45.2-30.132 66.25-79.266 66.25-154.626s-21.050-124.494-66.25-154.626c-39.292-26.196-96.042-37.374-189.75-37.374h-192v-288c0-17.674-14.328-32-32-32zM128 384h192c162.992 0 192 33.538 192 128 0 108.662-50.304 128-192 128h-192v-256z" />
<glyph unicode="&#x51;" glyph-name="uni51" horiz-adv-x="768" d="M605.472-65.354c-31.508-2.498-122.644-0.268-165.64 39.454-8.476 7.83-14.624 16.828-18.564 27.124 88.638 5.954 155.042 33.936 202.246 85.072 54.158 58.668 80.486 145.582 80.486 265.704 0 127.814-20.84 209.442-67.572 264.67-50.414 59.58-130.628 87.33-252.428 87.33-121.804 0-202.014-27.75-252.428-87.33-46.732-55.228-67.572-136.856-67.572-264.67 0-120.122 26.328-207.036 80.486-265.708 48.656-52.708 117.706-80.826 210.488-85.566 5.688-28.73 19.542-53.414 41.426-73.634 31.060-28.698 76.948-46.838 136.38-53.918 20.61-2.456 39.25-3.098 53.116-3.098 14.596 0 23.896 0.708 24.63 0.77 17.618 1.396 30.768 16.81 29.374 34.428-1.396 17.616-16.81 30.77-34.428 29.372zM191.514 129.708c-42.738 46.296-63.514 119.010-63.514 222.292 0 111.6 16.17 180.478 52.428 223.33 23.49 27.762 70.152 64.67 203.572 64.67s180.080-36.908 203.572-64.67c36.258-42.852 52.428-111.73 52.428-223.33 0-103.282-20.776-175.996-63.514-222.292-40.812-44.216-103.776-65.708-192.486-65.708-88.712 0-151.674 21.492-192.486 65.708z" />
<glyph unicode="&#x52;" glyph-name="uni52" horiz-adv-x="640" d="M406.166 324.344c45.37 5.412 78.142 16.070 103.584 33.030 45.2 30.132 66.25 79.266 66.25 154.626s-21.050 124.494-66.25 154.626c-39.292 26.196-96.042 37.374-189.75 37.374h-224c-17.672 0-32-14.328-32-32v-640c0-17.674 14.328-32 32-32s32 14.326 32 32v288h192c4.804 0 9.49 0.038 14.104 0.096l182.448-304.542c5.996-10.012 16.604-15.558 27.48-15.558 5.598 0 11.266 1.468 16.414 4.552 15.16 9.082 20.090 28.734 11.008 43.896l-165.288 275.9zM128 384v256h192c141.696 0 192-19.338 192-128 0-94.462-29.008-128-192-128h-192z" />
<glyph unicode="&#x53;" glyph-name="uni53" horiz-adv-x="704" d="M352 0c-167.76 0-269.502 66.542-273.75 69.376-14.706 9.802-18.678 29.672-8.876 44.376 9.784 14.68 29.596 18.662 44.294 8.93 0.606-0.392 23.246-15.016 63.53-29.422 37.322-13.35 97.946-29.26 174.802-29.26 90.796 0 154.968 16.122 190.74 47.918 22.382 19.89 33.26 46.088 33.26 80.082 0 39.2-33.3 60.876-62.308 75.378-44.862 22.426-108.2 38.262-169.452 53.576-64.604 16.152-131.408 32.852-182.55 58.422-64.822 32.414-97.69 77.034-97.69 132.624 0 52.592 18.416 95.63 54.74 127.916 47.838 42.524 126.318 64.084 233.26 64.084 167.76 0 269.502-66.542 273.75-69.374 14.708-9.804 18.68-29.672 8.876-44.376-9.802-14.704-29.672-18.678-44.376-8.876-0.128 0.086-22.814 14.838-63.45 29.368-37.32 13.346-97.944 29.258-174.8 29.258-90.796 0-154.97-16.122-190.74-47.916-22.382-19.894-33.26-46.090-33.26-80.084 0-39.196 33.3-60.874 62.31-75.378 44.858-22.43 108.198-38.264 169.45-53.578 64.604-16.152 131.41-32.852 182.548-58.422 64.824-32.412 97.692-77.032 97.692-132.622 0-52.592-18.418-95.628-54.74-127.918-47.838-42.522-126.318-64.082-233.26-64.082z" />
<glyph unicode="&#x54;" glyph-name="uni54" horiz-adv-x="704" d="M608 704h-512c-17.672 0-32-14.328-32-32s14.328-32 32-32h224v-608c0-17.674 14.328-32 32-32s32 14.326 32 32v608h224c17.674 0 32 14.328 32 32s-14.326 32-32 32z" />
<glyph unicode="&#x55;" glyph-name="uni55" horiz-adv-x="704" d="M352 0c-117.024 0-192.258 25.336-236.766 79.736-45.026 55.034-51.234 132.62-51.234 208.264v384c0 17.672 14.328 32 32 32s32-14.328 32-32v-384c0-87.222 10.652-135.818 36.766-167.736 31.406-38.386 90.902-56.264 187.234-56.264s155.828 17.878 187.232 56.264c26.116 31.918 36.768 80.514 36.768 167.736v384c0 17.672 14.326 32 32 32s32-14.328 32-32v-384c0-75.644-6.208-153.23-51.232-208.264-44.51-54.4-119.744-79.736-236.768-79.736z" />
<glyph unicode="&#x56;" glyph-name="uni56" horiz-adv-x="704" d="M352 0c-13.084 0-24.852 7.966-29.71 20.116l-256 640c-6.564 16.41 1.416 35.032 17.826 41.596 16.412 6.564 35.032-1.418 41.596-17.826l226.288-565.724 226.29 565.722c6.562 16.41 25.188 24.392 41.598 17.826 16.406-6.564 24.388-25.186 17.824-41.596l-256-640c-4.86-12.148-16.626-20.114-29.712-20.114z" />
<glyph unicode="&#x57;" glyph-name="uni57" horiz-adv-x="960" d="M671.996 0c-13.754 0-25.994 8.798-30.356 21.88l-161.64 484.928-161.642-484.928c-4.412-13.238-16.894-22.15-30.842-21.876-13.952 0.21-26.158 9.438-30.166 22.8l-192 640c-5.078 16.928 4.528 34.768 21.456 39.846 16.93 5.076 34.768-4.528 39.846-21.456l162.956-543.186 160.038 480.11c4.352 13.068 16.58 21.882 30.354 21.882s26.002-8.814 30.36-21.88l160.038-480.11 162.956 543.186c5.078 16.926 22.92 26.532 39.846 21.456 16.928-5.078 26.536-22.918 21.458-39.846l-192-640c-4.010-13.366-16.214-22.59-30.166-22.8-0.17-0.004-0.334-0.006-0.496-0.006z" />
<glyph unicode="&#x58;" glyph-name="uni58" horiz-adv-x="640" d="M359.058 352l211.156 301.65c10.132 14.478 6.616 34.43-7.866 44.566-14.474 10.132-34.43 6.614-44.564-7.866l-197.784-282.548-197.784 282.548c-10.134 14.478-30.086 18-44.566 7.866-14.478-10.136-18-30.088-7.866-44.566l211.154-301.65-211.154-301.648c-10.134-14.478-6.614-34.432 7.866-44.566 5.586-3.908 11.986-5.788 18.322-5.788 10.088 0 20.018 4.758 26.244 13.65l197.784 282.552 197.786-282.548c6.224-8.892 16.152-13.65 26.242-13.65 6.34 0 12.738 1.876 18.324 5.788 14.478 10.134 17.998 30.090 7.864 44.566l-211.158 301.644z" />
<glyph unicode="&#x59;" glyph-name="uni59" horiz-adv-x="704" d="M625.75 698.626c-14.704 9.802-34.572 5.83-44.376-8.876l-229.374-344.062-229.374 344.062c-9.804 14.706-29.672 18.68-44.376 8.876-14.706-9.804-18.678-29.672-8.876-44.376l250.626-375.942v-246.308c0-17.674 14.328-32 32-32s32 14.326 32 32v246.308l250.624 375.942c9.806 14.704 5.834 34.572-8.874 44.376z" />
<glyph unicode="&#x5a;" glyph-name="uni5A" horiz-adv-x="704" d="M608 0h-512c-12.3 0-23.512 7.050-28.842 18.138-5.328 11.086-3.83 24.244 3.854 33.852l470.408 588.010h-445.42c-17.672 0-32 14.328-32 32s14.328 32 32 32h512c12.3 0 23.514-7.050 28.842-18.138s3.83-24.248-3.854-33.852l-470.408-588.010h445.42c17.674 0 32-14.326 32-32s-14.326-32-32-32z" />
<glyph unicode="&#x5b;" glyph-name="uni5B" horiz-adv-x="320" d="M224-192h-128c-17.672 0-32 14.326-32 32v960c0 17.672 14.328 32 32 32h128c17.674 0 32-14.328 32-32s-14.326-32-32-32h-96v-896h96c17.674 0 32-14.326 32-32s-14.326-32-32-32z" />
<glyph unicode="&#x5c;" glyph-name="uni5C" horiz-adv-x="576" d="M480.010-192.008c3.958 0 7.976 0.738 11.876 2.296 16.41 6.562 24.39 25.186 17.826 41.596l-384 960c-6.562 16.41-25.184 24.394-41.596 17.826-16.408-6.564-24.39-25.186-17.826-41.596l384-960c5.002-12.51 17.020-20.122 29.72-20.122z" />
<glyph unicode="&#x5d;" glyph-name="uni5D" horiz-adv-x="320" d="M96-192h128c17.672 0 32 14.326 32 32v960c0 17.672-14.328 32-32 32h-128c-17.674 0-32-14.328-32-32s14.326-32 32-32h96v-896h-96c-17.674 0-32-14.326-32-32s14.326-32 32-32z" />
<glyph unicode="&#x5e;" glyph-name="uni5E" horiz-adv-x="576" d="M480.026 383.998c-9.73 0-19.338 4.418-25.624 12.802l-166.402 221.866-166.4-221.866c-10.604-14.138-30.662-17.004-44.8-6.4s-17.004 30.662-6.4 44.8l192 256c6.042 8.058 15.528 12.8 25.6 12.8s19.556-4.742 25.6-12.8l192-256c10.604-14.138 7.738-34.196-6.4-44.8-5.756-4.316-12.494-6.4-19.174-6.402z" />
<glyph unicode="&#x5f;" glyph-name="uni5F" horiz-adv-x="512" d="M480-64h-448c-17.672 0-32-14.326-32-32s14.328-32 32-32h448c17.674 0 32 14.326 32 32s-14.326 32-32 32z" />
<glyph unicode="&#x60;" glyph-name="uni60" horiz-adv-x="320" d="M224.030 511.998c-10.34 0-20.488 5.002-26.656 14.252l-128 192c-9.802 14.704-5.83 34.572 8.876 44.376 14.704 9.804 34.572 5.83 44.376-8.876l128-192c9.802-14.704 5.83-34.572-8.876-44.376-5.456-3.636-11.622-5.376-17.72-5.376z" />
<glyph unicode="&#x61;" glyph-name="uni61" horiz-adv-x="576" d="M448.96 479.136c-35.874 22.422-87.018 32.864-160.96 32.864-61.846 0-106.64-7.090-140.97-22.31-16.156-7.164-23.446-26.068-16.284-42.224 7.164-16.156 26.064-23.444 42.224-16.284 25.524 11.318 63.152 16.818 115.030 16.818 133.818 0 160-35.2 160-96v-50.622c-32.426 13.312-80.932 18.622-160 18.622-69.332 0-123.878-13.334-162.128-39.628-40.478-27.83-61.872-69.454-61.872-120.372s21.394-92.542 61.872-120.37c38.25-26.296 92.796-39.63 162.128-39.63 81.106 0 130.046 5.586 162.468 19.666 4.828-11.548 16.232-19.666 29.532-19.666 17.674 0 32 14.326 32 32v320c0 58.218-21.208 100.992-63.040 127.136zM435.514 84.584c-22.138-18.452-94.792-20.584-147.514-20.584-55.35 0-98.876 9.808-125.872 28.372-22.964 15.786-34.128 37.91-34.128 67.628s11.164 51.842 34.128 67.628c26.996 18.564 70.522 28.372 125.872 28.372 52.722 0 125.376-2.132 147.514-20.584 11.41-9.508 12.486-28.232 12.486-75.416s-1.076-65.908-12.486-75.416z" />
<glyph unicode="&#x62;" glyph-name="uni62" horiz-adv-x="640" d="M514.624 450.628c-41.868 41.87-103.712 61.372-194.624 61.372-89.040 0-150.182-18.72-192-58.826v218.826c0 17.672-14.328 32-32 32s-32-14.328-32-32v-640c0-17.674 14.328-32 32-32s32 14.326 32 32v26.826c41.818-40.106 102.96-58.826 192-58.826 90.912 0 152.756 19.502 194.624 61.376 41.872 41.87 61.376 103.712 61.376 194.624s-19.502 152.756-61.376 194.628zM469.376 106.624c-29.084-29.082-76.55-42.624-149.376-42.624s-120.29 13.542-149.372 42.624c-29.086 29.084-42.628 76.55-42.628 149.376s13.542 120.29 42.628 149.372c29.082 29.084 76.546 42.628 149.372 42.628s120.292-13.544 149.376-42.628c29.080-29.082 42.624-76.546 42.624-149.372s-13.544-120.292-42.624-149.376z" />
<glyph unicode="&#x63;" glyph-name="uni63" horiz-adv-x="576" d="M320 0c-90.912 0-152.756 19.502-194.628 61.376-41.87 41.868-61.372 103.712-61.372 194.624s19.502 152.756 61.372 194.628c41.872 41.87 103.716 61.372 194.628 61.372 81.136 0 138.292-15.328 179.872-48.238 13.862-10.968 16.206-31.094 5.232-44.952-10.97-13.858-31.096-16.2-44.952-5.232-29.266 23.162-75.11 34.422-140.152 34.422-72.826 0-120.29-13.544-149.372-42.628-29.084-29.082-42.628-76.546-42.628-149.372s13.544-120.292 42.628-149.376c29.082-29.082 76.546-42.624 149.372-42.624 65.042 0 110.878 11.258 140.14 34.414 13.858 10.972 33.98 8.624 44.952-5.232 10.97-13.856 8.624-33.982-5.232-44.952-41.574-32.904-98.728-48.23-179.86-48.23z" />
<glyph unicode="&#x64;" glyph-name="uni64" horiz-adv-x="640" d="M544 704c-17.674 0-32-14.328-32-32v-218.828c-41.818 40.108-102.96 58.828-192 58.828-90.912 0-152.756-19.502-194.628-61.372-41.87-41.872-61.372-103.716-61.372-194.628s19.502-152.756 61.372-194.624c41.872-41.874 103.716-61.376 194.628-61.376 89.040 0 150.182 18.72 192 58.828v-26.828c0-17.674 14.326-32 32-32s32 14.326 32 32v640c0 17.672-14.326 32-32 32zM469.376 106.624c-29.084-29.082-76.55-42.624-149.376-42.624s-120.29 13.542-149.372 42.624c-29.084 29.084-42.628 76.55-42.628 149.376s13.544 120.29 42.628 149.372c29.082 29.084 76.546 42.628 149.372 42.628s120.292-13.544 149.376-42.628c29.082-29.082 42.624-76.546 42.624-149.372s-13.542-120.292-42.624-149.376z" />
<glyph unicode="&#x65;" glyph-name="uni65" horiz-adv-x="640" d="M320 0c-105.224 0-169.348 19.35-207.916 62.74-39.908 44.892-48.084 109.724-48.084 193.26 0 90.912 19.502 152.756 61.374 194.628 41.87 41.87 103.714 61.372 194.626 61.372 84.432 0 143.218-16.674 185.014-52.474 42.292-36.224 65.182-91.684 69.984-169.55 0.542-8.812-2.578-17.458-8.624-23.89-6.048-6.432-14.484-10.080-23.316-10.080l-415.058-0.006c0-81.564 9.248-125.236 31.916-150.74 25.366-28.538 74.736-41.26 160.084-41.26 116.79 0 149.988 25.958 165.864 48.576 10.152 14.462 30.11 17.958 44.578 7.806 14.462-10.152 17.958-30.114 7.804-44.578-37.296-53.132-102.566-75.804-218.246-75.804zM320 448c-72.826 0-120.29-13.544-149.374-42.628-19.496-19.496-32.008-47.254-38.14-85.372l374.982 0.004c-6.722 41.862-21.042 71.172-44.090 90.916-29.128 24.952-76.026 37.080-143.378 37.080z" />
<glyph unicode="&#x66;" glyph-name="uni66" horiz-adv-x="384" d="M288 512h-159.452c2.054 55.082 10.038 85.33 26.080 101.372 18.912 18.914 57.554 26.628 133.372 26.628 17.674 0 32 14.328 32 32s-14.326 32-32 32c-82.268 0-140.844-7.59-178.628-45.372-37.782-37.784-45.372-96.36-45.372-178.628v-448c0-17.674 14.328-32 32-32s32 14.326 32 32v416h160c17.674 0 32 14.328 32 32s-14.326 32-32 32z" />
<glyph unicode="&#x67;" glyph-name="uni67" horiz-adv-x="640" d="M544 512c-17.674 0-32-14.328-32-32v-26.828c-41.818 40.108-102.96 58.828-192 58.828-90.912 0-152.756-19.502-194.628-61.372-41.87-41.872-61.372-103.716-61.372-194.628s19.502-152.756 61.372-194.624c41.872-41.874 103.716-61.376 194.628-61.376 89.040 0 150.182 18.72 192 58.828v-57.828c0-31.906 0-129-192-129-82.14 0-138.504 17.474-167.524 51.938-11.378 13.524-31.566 15.25-45.086 3.872-13.52-11.382-15.25-31.57-3.868-45.088 41.742-49.584 114.576-74.722 216.478-74.722 83.964 0 148.462 17.128 191.702 50.908 42.666 33.332 64.298 81.138 64.298 142.092v479c0 17.672-14.326 32-32 32zM469.376 106.624c-29.084-29.082-76.55-42.624-149.376-42.624s-120.29 13.542-149.372 42.624c-29.086 29.084-42.628 76.55-42.628 149.376s13.542 120.29 42.628 149.372c29.082 29.084 76.546 42.628 149.372 42.628s120.292-13.544 149.376-42.628c29.080-29.082 42.624-76.546 42.624-149.372s-13.544-120.292-42.624-149.376z" />
<glyph unicode="&#x68;" glyph-name="uni68" horiz-adv-x="576" d="M459.722 448.826c-36.432 42.508-92.604 63.174-171.722 63.174-71.082 0-123.632-16.694-160-50.912v210.912c0 17.672-14.328 32-32 32s-32-14.328-32-32v-640c0-17.674 14.328-32 32-32s32 14.326 32 32v224c0 72.782 12.060 122.232 36.868 151.174 23.874 27.854 63 40.826 123.132 40.826s99.258-12.972 123.132-40.826c24.81-28.942 36.868-78.392 36.868-151.174v-224c0-17.674 14.326-32 32-32s32 14.326 32 32v224c0 89.946-16.614 151.216-52.278 192.826z" />
<glyph unicode="&#x69;" glyph-name="uni69" horiz-adv-x="192" d="M96 0c-17.672 0-32 14.326-32 32v448c0 17.672 14.328 32 32 32 17.674 0 32-14.328 32-32v-448c0-17.674-14.326-32-32-32zM96 576c-17.672 0-32 14.328-32 32v64c0 17.672 14.328 32 32 32 17.674 0 32-14.328 32-32v-64c0-17.672-14.326-32-32-32z" />
<glyph unicode="&#x6a;" glyph-name="uni6A" horiz-adv-x="256" d="M-32.028-191.168c-16.872 0-30.99 13.2-31.924 30.25-0.966 17.646 12.554 32.734 30.202 33.704 61.176 3.35 102.224 17.63 125.49 43.656 24.738 27.674 36.26 74.56 36.26 147.558v416c0 17.672 14.326 32 32 32s32-14.328 32-32v-416c0-89.67-16.698-150.112-52.546-190.212-35.662-39.892-89.586-60.518-169.702-64.906-0.596-0.034-1.19-0.050-1.78-0.050zM160 576c-17.674 0-32 14.328-32 32v64c0 17.672 14.326 32 32 32s32-14.328 32-32v-64c0-17.672-14.326-32-32-32z" />
<glyph unicode="&#x6b;" glyph-name="uni6B" horiz-adv-x="448" d="M202.252 284.998l172.376 172.374c12.496 12.498 12.496 32.758 0 45.256-12.496 12.496-32.758 12.496-45.254 0l-201.374-201.374v370.746c0 17.672-14.326 32-32 32-17.672 0-32-14.328-32-32v-640c0-17.674 14.328-32 32-32 17.674 0 32 14.326 32 32v245.332l198.4-264.532c6.288-8.382 15.892-12.802 25.624-12.802 6.68 0 13.418 2.086 19.176 6.402 14.136 10.604 17.004 30.66 6.398 44.798l-175.346 233.8z" />
<glyph unicode="&#x6c;" glyph-name="uni6C" horiz-adv-x="192" d="M160 64v0.012c-3.178 0.15-11.738 1.3-18.878 5.234-6.49 3.572-13.122 9.546-13.122 26.754v576c0 17.672-14.326 32-32 32-17.672 0-32-14.328-32-32v-576c0-70.434 57.41-96 96-96 17.674 0 32 14.326 32 32s-14.326 32-32 32z" />
<glyph unicode="&#x6d;" glyph-name="uni6D" horiz-adv-x="960" d="M843.724 448.826c-36.436 42.51-92.608 63.174-171.724 63.174-79.118 0-135.29-20.664-171.722-63.174-7.624-8.894-14.372-18.696-20.278-29.474-5.906 10.78-12.652 20.58-20.276 29.474-36.436 42.51-92.608 63.174-171.724 63.174-71.082 0-123.632-16.692-160-50.912v18.912c0 17.672-14.328 32-32 32s-32-14.328-32-32v-448c0-17.674 14.328-32 32-32s32 14.326 32 32v224c0 72.782 12.060 122.232 36.868 151.174 23.874 27.854 63 40.826 123.132 40.826 60.13 0 99.258-12.972 123.13-40.826 24.81-28.942 36.87-78.392 36.87-151.174v-224c0-17.674 14.326-32 32-32s32 14.326 32 32v224c0 72.782 12.058 122.232 36.872 151.174 23.87 27.854 63 40.826 123.128 40.826 60.13 0 99.258-12.972 123.13-40.826 24.81-28.942 36.87-78.392 36.87-151.174v-224c0-17.674 14.326-32 32-32s32 14.326 32 32v224c0 89.946-16.612 151.216-52.276 192.826z" />
<glyph unicode="&#x6e;" glyph-name="uni6E" horiz-adv-x="576" d="M459.722 448.826c-36.432 42.51-92.604 63.174-171.722 63.174-71.082 0-123.632-16.692-160-50.912v18.912c0 17.672-14.328 32-32 32s-32-14.328-32-32v-448c0-17.674 14.328-32 32-32s32 14.326 32 32v224c0 72.782 12.060 122.232 36.868 151.174 23.874 27.854 63 40.826 123.132 40.826 60.128 0 99.258-12.972 123.128-40.826 24.814-28.942 36.872-78.392 36.872-151.174v-224c0-17.674 14.326-32 32-32s32 14.326 32 32v224c0 89.946-16.614 151.216-52.278 192.826z" />
<glyph unicode="&#x6f;" glyph-name="uni6F" horiz-adv-x="640" d="M320 0c-90.912 0-152.756 19.502-194.628 61.376-41.87 41.868-61.372 103.712-61.372 194.624s19.502 152.756 61.372 194.628c41.872 41.87 103.716 61.372 194.628 61.372s152.756-19.502 194.624-61.372c41.874-41.872 61.376-103.716 61.376-194.628s-19.502-152.756-61.376-194.624c-41.87-41.872-103.712-61.376-194.624-61.376zM320 448c-72.826 0-120.29-13.544-149.372-42.628-29.086-29.082-42.628-76.546-42.628-149.372s13.542-120.292 42.628-149.376c29.082-29.082 76.546-42.624 149.372-42.624s120.292 13.542 149.376 42.624 42.624 76.55 42.624 149.376-13.544 120.29-42.624 149.372c-29.084 29.084-76.55 42.628-149.376 42.628z" />
<glyph unicode="&#x70;" glyph-name="uni70" horiz-adv-x="640" d="M514.624 450.628c-41.868 41.87-103.712 61.372-194.624 61.372-89.038 0-150.182-18.72-192-58.826v26.826c0 17.672-14.328 32-32 32s-32-14.328-32-32v-640c0-17.674 14.328-32 32-32s32 14.326 32 32v218.826c41.818-40.106 102.962-58.826 192-58.826 90.912 0 152.756 19.502 194.624 61.376 41.872 41.87 61.376 103.712 61.376 194.624s-19.502 152.756-61.376 194.628zM469.376 106.624c-29.084-29.082-76.55-42.624-149.376-42.624s-120.29 13.542-149.372 42.624c-29.084 29.084-42.628 76.55-42.628 149.376s13.544 120.29 42.628 149.372c29.082 29.084 76.546 42.628 149.372 42.628s120.292-13.544 149.376-42.628c29.082-29.082 42.624-76.546 42.624-149.372s-13.542-120.292-42.624-149.376z" />
<glyph unicode="&#x71;" glyph-name="uni71" horiz-adv-x="640" d="M544 512c-17.674 0-32-14.328-32-32v-26.828c-41.818 40.108-102.96 58.828-192 58.828-90.912 0-152.756-19.502-194.628-61.372-41.87-41.872-61.372-103.716-61.372-194.628s19.502-152.756 61.372-194.624c41.872-41.874 103.716-61.376 194.628-61.376 89.040 0 150.18 18.72 192 58.828v-218.828c0-17.674 14.326-32 32-32s32 14.326 32 32v640c0 17.672-14.326 32-32 32zM469.376 106.624c-29.084-29.082-76.55-42.624-149.376-42.624s-120.29 13.542-149.374 42.624c-29.080 29.084-42.626 76.55-42.626 149.376s13.544 120.29 42.626 149.372c29.084 29.084 76.548 42.628 149.374 42.628s120.29-13.544 149.372-42.626c29.086-29.084 42.628-76.548 42.628-149.374s-13.542-120.292-42.624-149.376z" />
<glyph unicode="&#x72;" glyph-name="uni72" horiz-adv-x="384" d="M288 512c-71.082 0-123.632-16.694-160-50.912v18.912c0 17.672-14.328 32-32 32s-32-14.328-32-32v-448c0-17.674 14.328-32 32-32s32 14.326 32 32v224c0 72.782 12.060 122.232 36.868 151.174 23.874 27.854 63 40.826 123.132 40.826 17.674 0 32 14.328 32 32s-14.326 32-32 32z" />
<glyph unicode="&#x73;" glyph-name="uni73" horiz-adv-x="512" d="M256 0c-75.066 0-147.29 38.034-182.628 73.376-12.496 12.496-12.496 32.758 0 45.254 12.498 12.496 32.758 12.496 45.256 0 27.146-27.15 83.048-54.63 137.372-54.63 48.472 0 85.26 10.232 106.376 29.59 17.872 16.378 21.624 36.452 21.624 50.41 0 43.852-51.29 59.838-135.76 80.958-41.31 10.328-84.026 21.004-117.66 39.504-44.18 24.298-66.58 59.132-66.58 103.538 0 69.614 50.438 144 192 144 76.43 0 148.004-38.006 179.208-75.548 11.296-13.592 9.44-33.768-4.156-45.064-13.59-11.296-33.766-9.434-45.058 4.156-20.97 25.228-76.63 52.456-129.994 52.456-48.476 0-85.26-10.232-106.376-29.588-17.872-16.384-21.624-36.456-21.624-50.412 0-43.85 51.29-59.838 135.76-80.958 41.31-10.328 84.026-21.004 117.662-39.504 44.178-24.298 66.578-59.132 66.578-103.538 0-69.614-50.442-144-192-144z" />
<glyph unicode="&#x74;" glyph-name="uni74" horiz-adv-x="384" d="M288 64c-75.82 0-114.46 7.714-133.372 26.626-18.914 18.916-26.628 57.556-26.628 133.374v224h160c17.674 0 32 14.328 32 32s-14.326 32-32 32h-160v160c0 17.672-14.328 32-32 32s-32-14.328-32-32v-448c0-82.268 7.59-140.846 45.372-178.626 37.784-37.784 96.36-45.374 178.628-45.374 17.674 0 32 14.326 32 32s-14.326 32-32 32z" />
<glyph unicode="&#x75;" glyph-name="uni75" horiz-adv-x="576" d="M480 512c-17.674 0-32-14.328-32-32v-224c0-72.782-12.058-122.232-36.872-151.174-23.87-27.854-63-40.826-123.128-40.826-60.132 0-99.258 12.972-123.132 40.826-24.808 28.942-36.868 78.392-36.868 151.174v224c0 17.672-14.328 32-32 32s-32-14.328-32-32v-224c0-89.946 16.612-151.214 52.276-192.826 36.438-42.51 92.608-63.174 171.724-63.174 71.082 0 123.632 16.694 160 50.91v-18.91c0-17.674 14.326-32 32-32s32 14.326 32 32v448c0 17.672-14.326 32-32 32z" />
<glyph unicode="&#x76;" glyph-name="uni76" horiz-adv-x="576" d="M288 0c-12.8 0-24.372 7.628-29.412 19.394l-192 448c-6.96 16.244 0.564 35.056 16.808 42.018 16.246 6.958 35.056-0.564 42.018-16.808l162.586-379.37 162.588 379.372c6.958 16.244 25.766 23.772 42.018 16.808 16.244-6.962 23.77-25.774 16.806-42.018l-192-448c-5.040-11.768-16.612-19.396-29.412-19.396z" />
<glyph unicode="&#x77;" glyph-name="uni77" horiz-adv-x="960" d="M876.606 509.414c-16.252 6.964-35.052-0.564-42.018-16.808l-162.588-379.372-162.614 379.362c-3.124 7.29-8.918 13.448-16.788 16.818-16.252 6.964-35.058-0.564-42.018-16.808l-162.58-379.372-162.586 379.372c-6.962 16.244-25.774 23.766-42.018 16.808-16.244-6.962-23.768-25.774-16.808-42.018l192-448c5.042-11.768 16.612-19.396 29.412-19.396s24.372 7.628 29.412 19.394l162.588 379.372 162.588-379.372c5.040-11.766 16.612-19.394 29.412-19.394s24.372 7.628 29.412 19.394l192 448c6.964 16.244-0.562 35.058-16.806 42.020z" />
<glyph unicode="&#x78;" glyph-name="uni78" horiz-adv-x="576" d="M330.146 256l174.15 203.174c11.5 13.418 9.948 33.62-3.47 45.122-13.42 11.506-33.624 9.946-45.124-3.47l-167.702-195.654-167.704 195.654c-11.502 13.418-31.706 14.972-45.122 3.47-13.418-11.5-14.972-31.704-3.47-45.122l174.15-203.174-174.15-203.174c-11.502-13.42-9.948-33.624 3.47-45.124 6.036-5.172 13.44-7.704 20.81-7.704 9.016 0 17.982 3.792 24.31 11.174l167.706 195.656 167.704-195.654c6.332-7.378 15.292-11.174 24.312-11.174 7.372 0 14.778 2.532 20.81 7.704 13.418 11.502 14.97 31.708 3.47 45.124l-174.15 203.172z" />
<glyph unicode="&#x79;" glyph-name="uni79" horiz-adv-x="576" d="M492.606 509.414c-16.252 6.964-35.058-0.564-42.018-16.808l-162.588-379.372-162.586 379.372c-6.962 16.244-25.774 23.766-42.018 16.808-16.244-6.962-23.768-25.774-16.808-42.018l186.58-435.354c-63.77-146.932-85.084-160.042-157.168-160.042-17.672 0-32-14.326-32-32s14.328-32 32-32c43.872 0 89.88 5.526 129.144 45.608 31.708 32.372 56.888 83.236 92.27 165.792l192 448c6.962 16.238-0.564 35.052-16.808 42.014z" />
<glyph unicode="&#x7a;" glyph-name="uni7A" horiz-adv-x="576" d="M480 0h-384c-12.498 0-23.85 7.276-29.072 18.628s-3.356 24.708 4.776 34.198l338.722 395.174h-314.426c-17.672 0-32 14.328-32 32s14.328 32 32 32h384c12.496 0 23.85-7.276 29.072-18.628 5.22-11.352 3.358-24.708-4.776-34.196l-338.72-395.176h314.424c17.674 0 32-14.326 32-32s-14.326-32-32-32z" />
<glyph unicode="&#x7b;" glyph-name="uni7B" horiz-adv-x="448" d="M352-128h-32c-35.29 0-64 28.71-64 64v320c0 38.204-16.844 72.526-43.472 96 26.628 23.474 43.472 57.796 43.472 96v256c0 35.29 28.71 64 64 64h32c17.674 0 32 14.328 32 32s-14.326 32-32 32h-32c-70.58 0-128-57.42-128-128v-256c0-35.29-28.71-64-64-64h-32c-17.672 0-32-14.328-32-32s14.328-32 32-32h32c35.29 0 64-28.71 64-64v-320c0-70.58 57.42-128 128-128h32c17.674 0 32 14.326 32 32s-14.326 32-32 32z" />
<glyph unicode="&#x7c;" glyph-name="uni7C" horiz-adv-x="192" d="M96-192c-17.672 0-32 14.326-32 32v960c0 17.672 14.328 32 32 32s32-14.328 32-32v-960c0-17.674-14.326-32-32-32z" />
<glyph unicode="&#x7d;" glyph-name="uni7D" horiz-adv-x="448" d="M96-128h32c35.29 0 64 28.71 64 64v320c0 38.204 16.844 72.526 43.472 96-26.628 23.474-43.472 57.796-43.472 96v256c0 35.29-28.71 64-64 64h-32c-17.674 0-32 14.328-32 32s14.326 32 32 32h32c70.58 0 128-57.42 128-128v-256c0-35.29 28.71-64 64-64h32c17.672 0 32-14.328 32-32s-14.328-32-32-32h-32c-35.29 0-64-28.71-64-64v-320c0-70.58-57.42-128-128-128h-32c-17.674 0-32 14.326-32 32s14.326 32 32 32z" />
<glyph unicode="&#x7e;" glyph-name="uni7E" horiz-adv-x="640" d="M95.998 191.992c-3.63 0-7.324 0.622-10.934 1.934-16.61 6.042-25.178 24.4-19.138 41.010 28.464 78.28 62.514 121.3 107.152 135.384 58.676 18.51 115.308-21.13 165.274-56.106 39.694-27.788 80.74-56.504 109.312-47.502 23.112 7.292 46.024 40.566 66.262 96.222 6.042 16.608 24.402 25.174 41.010 19.138 16.61-6.040 25.178-24.4 19.138-41.008-28.466-78.28-62.514-121.298-107.152-135.384-10.318-3.256-20.578-4.712-30.744-4.712-47.648-0.004-93.35 31.992-134.53 60.818-39.694 27.786-80.742 56.506-109.312 47.502-23.112-7.292-46.024-40.566-66.264-96.222-4.726-13.002-17-21.074-30.074-21.074z" />
<glyph unicode="&#xa9;" glyph-name="uniA9" horiz-adv-x="832" d="M416 192c-58.96 0-96.782 11.526-122.628 37.374-25.846 25.844-37.372 63.666-37.372 122.626s11.526 96.782 37.372 122.628c25.848 25.846 63.668 37.372 122.628 37.372 58.090 0 127.764-9.854 151.11-86.698 5.138-16.91-4.404-34.784-21.314-39.92-16.904-5.14-34.784 4.404-39.92 21.316-6.868 22.596-18.368 41.302-89.876 41.302-40.078 0-64.664-5.918-77.374-18.628-12.706-12.708-18.626-37.294-18.626-77.372s5.92-64.664 18.626-77.374c12.71-12.706 37.296-18.626 77.374-18.626 71.504 0 83.006 18.706 89.874 41.3 5.138 16.91 23.014 26.446 39.922 21.312 16.908-5.138 26.452-23.012 21.312-39.922-23.35-76.836-93.020-86.69-151.108-86.69zM416 0c-121.966 0-209.18 27.926-266.628 85.374-57.446 57.446-85.372 144.66-85.372 266.626s27.926 209.18 85.372 266.628c57.448 57.446 144.662 85.372 266.628 85.372s209.18-27.926 266.626-85.372c57.448-57.448 85.374-144.662 85.374-266.628s-27.926-209.18-85.374-266.626-144.658-85.374-266.626-85.374zM416 640c-104.128 0-176.54-21.794-221.372-66.628-44.834-44.832-66.628-117.244-66.628-221.372 0-104.126 21.794-176.54 66.628-221.374 44.834-44.832 117.244-66.626 221.372-66.626 104.126 0 176.54 21.794 221.374 66.626 44.832 44.834 66.626 117.248 66.626 221.374 0 104.128-21.794 176.54-66.626 221.372-44.834 44.834-117.246 66.628-221.374 66.628z" />
<glyph unicode="&#xe900;" glyph-name="ac-unit, ac_unit" data-tags="AC Unit" d="M938.666 384.001h-179.2l136.532 136.532-59.732 59.732-196.268-196.268h-85.332v85.332l200.532 200.532-59.732 59.732-140.8-140.8v179.2h-85.332v-179.2l-136.532 140.8-64-59.732 200.532-200.532v-85.332h-85.332l-200.532 200.532-59.732-64 140.8-136.532h-179.2v-85.332h179.2l-136.532-136.532 59.732-59.732 196.268 196.268h85.332v-85.332l-200.532-200.532 59.732-59.732 136.532 136.532v-174.932h85.332v179.2l136.532-136.532 59.732 59.732-192 196.268v85.332h85.332l200.532-200.532 59.732 59.732-140.8 140.8h179.2z" />
<glyph unicode="&#xe901;" glyph-name="accessibility" data-tags="accessibility" horiz-adv-x="1029" d="M514.333 768.001c47.13 0 85.332-38.206 85.332-85.332s-38.206-85.332-85.332-85.332c-47.13 0-85.332 38.206-85.332 85.332v0c0 47.13 38.206 85.332 85.332 85.332zM898.333 469.333h-256v-554.668h-85.332v256h-85.332v-256h-85.332v554.668h-256v85.332h768z" />
<glyph unicode="&#xe902;" glyph-name="accessible" data-tags="Accessible" horiz-adv-x="1037" d="M518.497 597.333c47.13 0 85.332 38.206 85.332 85.332s-38.206 85.332-85.332 85.332c-47.13 0-85.332-38.206-85.332-85.332s38.206-85.332 85.332-85.332zM817.165 298.665v85.332c-68.71 2.216-130.25 31.178-174.89 76.755l-55.51 59.777c-7.253 6.925-15.721 12.658-25.035 16.84l-0.565 0.228c-13.69 10.65-31.125 17.074-50.059 17.074-0.401 0-0.802-0.003-1.201-0.010-43.49-5.682-76.771-42.55-76.771-87.193 0-0.847 0.010-1.69 0.035-2.53l-0.003-251.61c0-47.13 38.206-85.332 85.332-85.332h213.332v-213.332h85.332v234.668c0 47.13-38.206 85.332-85.332 85.332h-128v145.068c58.287-46.75 131.943-76.57 212.366-81.025zM552.63 85.333c-16.812-49.982-63.246-85.343-117.935-85.343-0.538 0-1.075 0.004-1.61 0.010-70.61-0.001-127.918 57.308-127.918 127.999-0.007 0.454-0.010 0.991-0.010 1.53 0 54.69 35.361 101.124 84.469 117.68l0.874 89.855c-98.070-20.544-170.668-106.307-170.668-209.024 0-0.014 0-0.030 0-0.047 0-117.818 95.511-213.33 213.332-213.33 101.967 2.137 186.63 73.683 208.778 169.19z" />
<glyph unicode="&#xe903;" glyph-name="account" data-tags="account" d="M512 768.001c-235.642 0-426.668-191.026-426.668-426.668s191.026-426.668 426.668-426.668c235.642 0 426.668 191.026 426.668 426.668s-191.026 426.668-426.668 426.668zM512 640.001c70.691 0 128-57.309 128-128s-57.309-128-128-128c-70.691 0-128 57.309-128 128s57.309 128 128 128zM512 34.133c-1.19-0.016-2.59-0.028-3.996-0.028-105.041 0-197.508 53.842-251.306 135.43-0.699 86.462 169.969 133.394 255.301 133.394s256-46.932 256-132.268c-56.5-82.413-149.935-135.933-255.909-136.532z" />
<glyph unicode="&#xe904;" glyph-name="shopping-cart-add, add_cart" data-tags="shopping-cart-add" d="M507.732 443.768h85.336v119.468h128.002v81.068h-128.002v123.736h-85.336v-123.736h-128.002v-81.068h128.002v-119.468zM337.064 76.832c-0.030 0-0.070 0-0.108 0-45.629 0-82.893-35.813-85.218-80.859 0.433-45.114 36.939-81.347 81.909-81.347 1.202 0 2.397 0.027 3.588 0.077 44.603-0.007 80.898 36.291 80.898 81.061s-36.294 81.068-81.068 81.068zM763.736 76.832c-0.030 0-0.070 0-0.108 0-45.629 0-82.893-35.813-85.218-80.859 0.433-45.114 36.939-81.347 81.909-81.347 1.202 0 2.397 0.027 3.588 0.077 44.603-0.007 80.898 36.291 80.898 81.061s-36.294 81.068-81.068 81.068zM345.596 204.832v8.532l38.4 64h315.74c0.949-0.042 2.058-0.066 3.175-0.066 30.153 0 56.292 17.185 69.157 42.294l166.606 286.309-72.536 38.4-46.935-81.068-115.201-204.804h-298.672l-4.268 12.8-102.4 192.004-76.8 162.136h-136.536v-81.068h85.336l153.604-311.472-59.736-98.136c-8.047-9.118-12.956-21.17-12.956-34.367 0-1.42 0.056-2.828 0.17-4.217 0.43-44.723 36.936-80.958 81.905-80.958 1.202 0 2.397 0.027 3.588 0.077l511.839-0.007v81.068h-494.94c-4.539 0.41-8.126 3.993-8.531 8.496z" />
<glyph unicode="&#xe905;" glyph-name="folder-add, add_folder" data-tags="folder-add" d="M853.338 597.333h-341.336l-85.336 85.336h-256c-47.128 0-85.336-38.204-85.336-85.336v-512c0-47.128 38.204-85.336 85.336-85.336h682.668c47.128 0 85.336 38.204 85.336 85.336v426.667c0 47.128-38.204 85.336-85.336 85.336zM810.668 255.997h-128v-128h-85.336v128h-128v85.336h128v128h85.336v-128h128v-85.336z" />
<glyph unicode="&#xe906;" glyph-name="warning-outlined, warning" data-tags="warning-outlined" horiz-adv-x="1034" d="M517.167 725.334l-451.765-767.998h903.53zM517.167 567.215l296.811-513.656h-600.398zM476.057 173.726h82.22v-80.864h-82.22v80.864zM476.057 401.87h82.22v-161.732h-82.22v161.732z" />
<glyph unicode="&#xe907;" glyph-name="add-a-photo, add_a_photo" data-tags="Add a Photo" d="M201.172 615.558v109.773h73.181v-109.773h111.457v-73.181h-111.457v-109.773h-73.181v109.773h-109.773v73.181zM310.95 396.009v109.773h109.773v109.773h256.14l66.453-73.181h116.084c0.008 0 0.011 0 0.020 0 40.419 0 73.181-32.767 73.181-73.181 0-0.591-0.009-1.179-0.022-1.772l0.002-436.905c0-40.419-32.767-73.181-73.181-73.181h-585.043c-40.419 0-73.181 32.767-73.181 73.181v365.495zM567.089 66.687c0.498-0.007 1.089-0.009 1.683-0.009 101.043 0 182.959 81.911 182.959 182.959s-81.911 182.959-182.959 182.959c-100.895 0-182.712-81.67-182.958-182.507 0-0.027 0-0.029 0-0.035 0-100.305 80.72-181.755 180.743-182.942zM450.161 249.646c0-64.575 52.35-116.923 116.923-116.923s116.923 52.35 116.923 116.923c0 64.575-52.35 116.923-116.923 116.923-0.125 0.001-0.274 0.001-0.423 0.001-64.43 0-116.685-52.11-116.922-116.483z" />
<glyph unicode="&#xe908;" glyph-name="add-to-photos, add_to_photos" data-tags="Add to Photos" d="M170.667 597.333h-85.333v-597.333c0-46.933 38.4-85.333 85.333-85.333h597.333v85.333h-597.333v597.333zM853.333 768h-512c-46.933 0-85.333-38.4-85.333-85.333v-512c0-46.933 38.4-85.333 85.333-85.333h512c46.933 0 85.333 38.4 85.333 85.333v512c0 46.933-38.4 85.333-85.333 85.333v0zM810.667 384h-170.667v-170.667h-85.333v170.667h-170.667v85.333h170.667v170.667h85.333v-170.667h170.667v-85.333z" />
<glyph unicode="&#xe909;" glyph-name="cabinets" data-tags="cabinets" horiz-adv-x="1042" d="M82.144 39.619h877.714v-82.287h-877.714v82.287zM493.573 725.335h-411.429v-658.288h411.429zM411.285 121.903h-54.855v164.571h54.855zM548.428 725.335v-658.288h411.429v658.288zM685.571 121.903h-54.855v164.571h54.855z" />
<glyph unicode="&#xe90a;" glyph-name="applications" data-tags="Applications" d="M85.333 554.666h213.333v213.333h-213.333v-213.333zM405.333-85.334h213.333v213.333h-213.333v-213.333zM85.333-85.334h213.333v213.333h-213.333v-213.333zM85.333 234.666h213.333v213.333h-213.333v-213.333zM405.333 234.666h213.333v213.333h-213.333v-213.333zM725.333 768v-213.333h213.333v213.333h-213.333zM405.333 554.666h213.333v213.333h-213.333v-213.333zM725.333 234.666h213.333v213.333h-213.333v-213.333zM725.333-85.334h213.333v213.333h-213.333v-213.333z" />
<glyph unicode="&#xe90b;" glyph-name="apron" data-tags="apron" d="M893.866 209.068v0c0 59.733-17.067 110.933-85.333 123.733v0 0c-4.267 0-8.533 4.267-12.8 4.267-17.067 4.267-55.467 17.067-76.8 59.733-12.8 21.333-25.6 51.2-34.133 89.6l-34.133 157.867c0 0 0 0 0 4.267v8.533c-12.8 64-72.533 110.933-136.533 110.933s-123.733-46.933-140.8-110.933v0-4.267c0 0 0 0 0-4.267l-17.067-76.8c0 0 0 0 0-4.267l-12.8-64c-12.8-38.4-21.333-68.267-34.133-93.867-25.6-51.2-59.733-68.267-81.067-72.533-4.267 0-8.533-4.267-12.8-4.267v0 0c-68.267-17.067-85.333-68.267-85.333-123.733v-4.267c0-42.667-34.133-46.933-46.933-51.2v-68.267c46.933 0 119.467 34.133 123.733 123.733v8.533c0 4.267 0 4.267 0 4.267 0 8.533 8.533 34.133 59.733 38.4l-4.267-345.6h507.733l-8.533 345.6c46.933-4.267 55.467-25.6 55.467-38.4 0-4.267 0-4.267 0-4.267v0-8.533c0-89.6 72.533-123.733 123.733-123.733v76.8c-12.8 0-46.933 4.267-46.933 46.933v0zM420.266 477.868l21.333 153.6c4.267 34.133 38.4 59.733 72.533 59.733 38.4 0 68.267-25.6 72.533-59.733v0l21.333-153.6h-187.733z" />
<glyph unicode="&#xe90c;" glyph-name="arrow-down, arrow_down" data-tags="Arrow Down" d="M938.667 341.333l-76.8 76.8-298.667-298.667v648.533h-102.4v-648.533l-298.667 298.667-76.8-76.8 426.667-426.667z" />
<glyph unicode="&#xe90d;" glyph-name="arrow-left, arrow_left" data-tags="Arrow Left" d="M290.133 392.533l298.667 298.667-76.8 76.8-426.667-426.667 426.667-426.667 76.8 76.8-298.667 298.667h648.533v102.4z" />
<glyph unicode="&#xe90e;" glyph-name="arrow-right, arrow_right" data-tags="Arrow Right" d="M512 768l-76.8-76.8 298.667-298.667h-648.533v-102.4h648.533l-298.667-298.667 76.8-76.8 426.667 426.667z" />
<glyph unicode="&#xe90f;" glyph-name="arrow-sub-left, arrow_sub_left" data-tags="Arrow Sub Left" d="M507.733 443.733l-183.467-179.2h469.333v503.467h102.4v-601.6h-571.733l183.467-179.2-72.533-72.533-307.2 302.933 307.2 298.667z" />
<glyph unicode="&#xe910;" glyph-name="arrow-sub-right, arrow_sub_right" data-tags="Arrow Sub Right" d="M896 217.6l-307.2-302.933-72.533 72.533 183.467 179.2h-571.733v601.6h102.4v-503.467h469.333l-183.467 179.2 72.533 72.533z" />
<glyph unicode="&#xe911;" glyph-name="arrow-up, arrow_up" data-tags="Arrow Up" d="M85.333 341.333l76.8-76.8 298.667 298.667v-648.533h102.4v648.533l298.667-298.667 76.8 76.8-426.667 426.667z" />
<glyph unicode="&#xe912;" glyph-name="attach-file, attach_file" data-tags="Attach File" d="M665.599 571.733v-443.733c0-85.333-68.267-153.6-153.6-153.6s-153.6 68.267-153.6 153.6v486.4c0 51.2 42.667 93.867 98.133 93.867s93.867-42.667 93.867-93.867v-409.6c0-21.333-17.067-38.4-38.4-38.4s-38.4 17.067-38.4 38.4v366.933h-64v-366.933c0-51.2 42.667-93.867 93.867-93.867s93.867 42.667 93.867 93.867v409.6c4.267 85.333-64 153.6-149.333 153.6s-149.333-68.267-149.333-153.6v-486.4c0-119.467 93.867-213.333 213.333-213.333s213.333 93.867 213.333 213.333v443.733h-59.733z" />
<glyph unicode="&#xe913;" glyph-name="ban" data-tags="ban" d="M622.508 512.001l-110.508-110.508-110.508 110.508-60.16-60.16 110.508-110.508-110.508-110.508 60.16-60.16 110.508 110.508 110.508-110.508 60.16 60.16-110.508 110.508 110.508 110.508zM512 768.001c-235.642 0-426.668-191.026-426.668-426.668s191.026-426.668 426.668-426.668c235.642 0 426.668 191.026 426.668 426.668v0c0 235.642-191.026 426.668-426.668 426.668v0zM512 0.001c-188.512 0-341.332 152.82-341.332 341.332s152.82 341.332 341.332 341.332c188.512 0 341.332-152.82 341.332-341.332v0c0-188.512-152.82-341.332-341.332-341.332v0z" />
<glyph unicode="&#xe914;" glyph-name="bank" data-tags="bank" horiz-adv-x="1033" d="M206.998 401.066v-285.867h123.733v285.867h-123.733zM454.465 401.066v-285.867h123.733v285.867h-123.733zM130.198-85.334h772.267v123.733h-772.267v-123.733zM697.665 401.066v-285.867h123.733v285.867h-123.733zM514.198 768l-384-204.8v-81.067h772.267v81.067l-388.267 204.8z" />
<glyph unicode="&#xe915;" glyph-name="appliance-ordering-filled, appliance_ordering_filled" data-tags="Appliance Ordering Filled" d="M396.8 482.133c12.081 1.303 21.405 11.445 21.405 23.764 0 0.648-0.027 1.288-0.075 1.92 0.032 0.311 0.050 0.773 0.050 1.24 0 11.074-8.978 20.052-20.052 20.052-0.467 0-0.929-0.015-1.387-0.049-13.633-1.047-24.49-11.901-25.531-25.503 1.296-12.174 11.438-21.498 23.757-21.498 0.648 0 1.288 0.027 1.92 0.075zM512 435.201c-77.762 0-140.8-63.038-140.8-140.8s63.038-140.8 140.8-140.8c77.762 0 140.8 63.038 140.8 140.8-0.716 77.47-63.33 140.084-140.73 140.799zM576 226.133c-16.388-16.479-39.074-26.678-64.146-26.678-27.121 0-51.453 11.935-68.032 30.842l132.178 132.37 4.268-4.268c16.479-16.388 26.678-39.074 26.678-64.146 0-27.121-11.935-51.453-30.842-68.032zM465.068 486.401c11.782 0 21.332 9.55 21.332 21.332s-9.55 21.332-21.332 21.332c-11.782 0-21.332-9.55-21.332-21.332-0.029-0.395-0.044-0.858-0.044-1.324 0-11.074 8.978-20.052 20.052-20.052 0.467 0 0.929 0.015 1.387 0.049zM512 768.001c-235.642 0-426.668-191.026-426.668-426.668s191.026-426.668 426.668-426.668c235.642 0 426.668 191.026 426.668 426.668s-191.026 426.668-426.668 426.668zM699.732 153.601c-0.239-25.825-21.11-46.693-46.91-46.932h-281.623c-25.825 0.239-46.693 21.11-46.932 46.91v375.491c0 0.064-0.001 0.138-0.001 0.213 0 23.565 19.103 42.668 42.668 42.668 1.503 0 2.989-0.077 4.45-0.23l281.416 0.014c1.28 0.135 2.765 0.213 4.269 0.213 23.565 0 42.668-19.103 42.668-42.668 0-0.074 0-0.15-0.001-0.227z" />
<glyph unicode="&#xe916;" glyph-name="barcode" data-tags="barcode" d="M115.2 0.001h-29.863v682.664h29.863zM145.065 0.001h-12.8v682.664h17.063l-4.263-682.664zM187.736 0.001h-12.8v682.664h17.063l-4.263-682.664zM264.536 0.001h-12.8v682.664h17.063l-4.263-682.664zM337.064 0.001h-29.863v682.664h29.863zM401.065 0.001h-17.063v682.664h17.063zM430.937 0.001h-17.063v682.664h17.063zM460.8 0.001h-17.063v682.664h17.063zM533.335 0.001h-29.863v682.664h29.863zM605.863 0.001h-29.863v682.664h29.863zM669.864 0.001h-29.863v682.664h29.863zM729.6 0.001h-29.863v682.664h29.863zM772.264 0.001h-29.863v682.664h29.863zM861.864 0.001h-46.935v682.664h46.935zM891.735 0.001h-17.063v682.664h17.063zM938.664 0.001h-29.863v682.664h29.863z" />
<glyph unicode="&#xe918;" glyph-name="battery-alert, battery_alert" data-tags="Battery Alert" d="M667.733 682.667h-72.533v85.333h-170.667v-85.333h-72.533c-29.867 0-55.467-25.6-55.467-55.467v-652.8c0-34.133 25.6-59.733 55.467-59.733h315.733c34.133 0 55.467 25.6 55.467 55.467v657.067c4.267 29.867-25.6 55.467-55.467 55.467v0zM552.533 85.334h-85.333v85.333h85.333v-85.333zM552.533 256.001h-85.333v213.333h85.333v-213.333z" />
<glyph unicode="&#xe919;" glyph-name="battery-charging, battery_charging" data-tags="Battery Charging" d="M669.867 682.667h-72.533v85.333h-170.667v-85.333h-72.533c-29.867 0-55.467-25.6-55.467-55.467v-652.8c0-34.133 25.6-59.733 55.467-59.733h315.733c34.133 0 55.467 25.6 55.467 55.467v657.067c0 29.867-25.6 55.467-55.467 55.467v0zM469.333 0.001v234.667h-85.333l170.667 320v-234.667h85.333l-170.667-320z" />
<glyph unicode="&#xe91a;" glyph-name="battery-full" data-tags="Battery Full" d="M667.733 682.666h-72.533v85.333h-170.667v-85.333h-72.533c-29.867 0-55.467-25.6-55.467-55.467v-652.8c0-34.133 25.6-59.733 55.467-59.733h315.733c34.133 0 55.467 25.6 55.467 55.467v657.067c4.267 29.867-25.6 55.467-55.467 55.467v0z" />
<glyph unicode="&#xe91b;" glyph-name="battery-unknown, battery_unknown" data-tags="Battery Unknown" d="M667.733 682.666h-72.533v85.333h-170.667v-85.333h-72.533c-29.867 0-55.467-25.6-55.467-55.467v-652.8c0-34.133 25.6-59.733 55.467-59.733h315.733c34.133 0 55.467 25.6 55.467 55.467v657.067c4.267 29.867-25.6 55.467-55.467 55.467v0zM552.533 89.6h-81.067v81.067h81.067v-81.067zM612.266 311.466c0 0-17.067-17.067-29.867-29.867-21.333-21.333-34.133-46.933-34.133-68.267h-68.267c0 34.133 17.067 64 38.4 85.333l38.4 38.4c12.8 8.533 17.067 25.6 17.067 46.933 0 34.133-29.867 64-64 64s-64-29.867-64-64h-64c0 72.533 55.467 128 128 128s128-55.467 128-128c0-29.867-8.533-51.2-25.6-72.533v0z" />
<glyph unicode="&#xe91c;" glyph-name="bell-active, bell_active" data-tags="Bell Active" d="M324.267 693.332l-64 64c-106.667-81.067-170.667-209.067-174.933-341.333h85.333c4.267 110.933 59.733 213.333 153.6 277.333zM853.333 415.999h85.333c-4.267 132.267-68.267 260.267-174.933 341.333l-59.733-64c89.6-64 145.067-166.4 149.333-277.333zM768 390.399c0 132.267-68.267 247.467-192 277.333v29.867c4.267 34.133-25.6 64-59.733 68.267s-64-25.6-68.267-59.733c0-4.267 0-4.267 0-8.533v-29.867c-123.733-29.867-192-140.8-192-277.333v-217.6l-85.333-85.333v-42.667h682.667v42.667l-85.333 85.333v217.6zM512-87.468c4.267 0 12.8 0 17.067 0 29.867 4.267 51.2 25.6 64 51.2 4.267 12.8 4.267 25.6 4.267 34.133h-170.667c0-46.933 38.4-85.333 85.333-85.333z" />
<glyph unicode="&#xe91d;" glyph-name="bell-off, bell_off" data-tags="bell-off" d="M832 59.733l-520.533 550.4-106.667 115.2-55.467-55.467 119.467-123.733c-21.333-46.933-34.133-98.133-34.133-149.333v-217.6l-85.333-89.6v-42.667h584.533l85.333-85.333 55.467 55.467-42.667 42.667zM490.667-85.334c46.933 0 85.333 38.4 85.333 85.333 0 0 0 0 0 0h-170.667c0-46.933 38.4-85.333 85.333-85.333 0 0 0 0 0 0zM746.667 234.666v157.867c0 136.533-68.267 247.467-192 277.333v34.133c0 34.133-29.867 64-64 64s-64-29.867-64-64v-29.867c-4.267 0-12.8-4.267-17.067-4.267s-8.533-4.267-12.8-4.267v0 0c-12.8-8.533-21.333-12.8-29.867-17.067v0l379.733-413.867z" />
<glyph unicode="&#xe91e;" glyph-name="bell" data-tags="bell" horiz-adv-x="1032" d="M515.999-85.334c51.2 0 89.6 38.4 89.6 89.6h-179.2c0-51.2 38.4-89.6 89.6-89.6zM789.066 179.2v217.6c0 132.267-72.533 247.467-204.8 277.333v29.867c0 34.133-29.867 64-68.267 64s-68.267-29.867-68.267-64v-29.867c-128-29.867-204.8-140.8-204.8-277.333v-217.6l-89.6-85.333v-42.667h725.333v42.667l-89.6 85.333z" />
<glyph unicode="&#xe91f;" glyph-name="benefits" data-tags="benefits" horiz-adv-x="1035" d="M922.551 361.067c0 0.048 0 0.108 0 0.169 0 25.424-19.516 46.286-44.382 48.43l-0.18 0.011c-9.089-0.908-17.352-3.806-24.554-8.245l0.249 0.142-194.452-109.381h-121.533c-12.152 0-20.257 8.101-28.357 20.257-2.645 4.925-4.198 10.774-4.198 16.986 0 1.149 0.052 2.289 0.159 3.413 0.952 17.003 12.442 31.23 28.061 36.235l113.716 0.080c24.924 1.358 45.082 20.125 48.58 44.284l0.032 4.33c-0.908 9.089-3.806 17.352-8.245 24.554-11.099 11.78-26.773 19.536-44.268 20.407l-291.83 0.008c-14.438-0.041-27.415-6.265-36.423-16.165l-0.035-0.040-129.633-121.533-72.919-69.273v-319.631l72.919 60.767 202.553 174.195c14.454 14.742 34.475 23.981 56.653 24.304l235.024 0.001 218.757 121.533c14.652 8.044 24.417 23.369 24.417 40.973 0 1.12-0.040 2.232-0.118 3.334zM492.326 553.898c-9.493 7.484-15.532 18.986-15.532 31.894 0 1.18 0.049 2.346 0.148 3.502l-0.009 7.142h48.614v-9.317c-0.408-2.801-0.644-6.031-0.644-9.317s0.236-6.519 0.688-9.678c-0.044-2.068 3.2-3.284 7.248-3.284 0.246-0.023 0.533-0.034 0.823-0.034 2.489 0 4.758 0.937 6.48 2.475 1.529 1.812 2.46 4.182 2.46 6.772 0 0.324-0.013 0.643-0.044 0.959 0.042 0.699 0.065 1.567 0.065 2.44 0 5.632-0.911 11.046-2.593 16.112-3.757 5.062-9.165 9.164-15.471 11.322q-22.502 11.006-30.607 15.867c-5.61 3.695-10.223 8.442-13.664 13.989-2.338 4.886-3.638 10.389-3.638 16.195 0 1.643 0.104 3.258 0.306 4.845-0.040 0.23-0.049 0.719-0.049 1.212 0 10.1 4.739 19.096 12.115 24.878 10.456 7.039 23.146 11.369 36.822 11.798l0.108 12.156h22.281v-12.152c12.703-0.505 24.304-4.836 33.787-11.862 6.81-5.863 11.203-14.687 11.203-24.532 0-0.447-0.009-0.897-0.028-1.339s0.003-3.987 0.003-6.824h-48.614v6.076c0.423 1.947 0.663 4.188 0.663 6.483s-0.24 4.532-0.7 6.693c-1.282 1.811-3.53 3.125-6.088 3.125-0.411 0-0.816-0.033-1.208-0.101-0.051 0.009-0.163 0.010-0.275 0.010-2.46 0-4.666-1.097-6.153-2.831-1.32-1.923-2.101-4.283-2.101-6.829 0-0.451 0.026-0.899 0.072-1.339-0.060-0.419-0.089-0.967-0.089-1.524 0-4.16 1.74-7.911 4.535-10.571 7.465-4.791 16.116-9.397 25.134-13.313 11.047-4.89 19.289-9.353 27.17-14.333 3.884-2.878 7.711-7.224 10.4-12.263 2.935-5.776 4.596-12.36 4.596-19.334 0-0.677-0.015-1.355-0.047-2.023 0.043-0.567 0.066-1.342 0.066-2.122 0-11.558-4.838-21.985-12.603-29.363-8.329-6.376-18.579-10.613-29.746-11.745l202.305-0.021c-5.868 113.201-99.087 202.769-213.224 202.769-3.372 0-6.726-0.079-10.058-0.234-2.388 0.155-5.744 0.234-9.114 0.234-114.136 0-207.355-89.568-213.202-202.248l202.533-0.522c-9.511 1.722-17.966 5.269-25.348 10.274z" />
<glyph unicode="&#xe920;" glyph-name="payment-card-reader" data-tags="payment-card-reader" horiz-adv-x="1031" d="M345 128.001l30.718-30.718 119.467 119.467v-259.412h40.959v259.412l119.467-119.467 30.718 30.718-170.666 170.666-170.666-170.666zM89.002 725.335v-213.332h42.669v170.666h767.998v-170.666h42.669v213.332h-853.332zM771.668 384.002h-85.332v256.001h-128.001v-256.001h-298.664v256.001h-42.669v-256.001c0-23.565 19.104-42.669 42.669-42.669v0h511.999c23.565 0 42.669 19.104 42.669 42.669v0 256.001h-42.669z" />
<glyph unicode="&#xe921;" glyph-name="appliance-blender, appliance_blender, blender" data-tags="Appliance, Blender" horiz-adv-x="1033" d="M175.001 768h558.932v-76.8h-558.932zM452.333-25.6c-25.921 0-46.932 21.011-46.932 46.932s21.011 46.932 46.932 46.932c25.921 0 46.932-21.011 46.932-46.932 0.151-1.351 0.238-2.918 0.238-4.506 0-23.565-19.103-42.668-42.668-42.668-1.588 0-3.152 0.088-4.695 0.255l0.191-0.016zM610.201 128h-320c-0.399 0.011-0.871 0.011-1.343 0.011-38.307 0-69.551-30.231-71.187-68.131l-0.006-145.213h460.8v145.068c0.004 0.254 0.007 0.556 0.007 0.859 0 37.231-30.182 67.412-67.412 67.412-0.302 0-0.604-0.002-0.905-0.007zM780.863 375.462h-81.068l17.068 119.468h68.268v-119.468zM729.663 631.462h-76.8l-46.932-366.932h-307.2l-34.132 290.132-12.8 76.8h-76.8l55.468-443.732h443.732l17.068 110.932h166.4v273.068h-132.268z" />
<glyph unicode="&#xe922;" glyph-name="bluetooth-connected, bluetooth_connected" data-tags="bluetooth-connected" d="M298.667 341.332l-85.333 85.333-85.333-85.333 85.333-85.333 85.333 85.333zM755.2 524.799l-243.2 243.2h-42.667v-324.267l-196.267 196.267-59.733-59.733 238.933-238.933-238.933-238.933 59.733-59.733 196.267 196.267v-324.267h42.667l243.2 243.2-183.467 183.467 183.467 183.467zM554.667 605.865l81.067-81.067-81.067-81.067v162.133zM635.733 157.865l-81.067-81.067v162.133l81.067-81.067zM810.667 426.665l-85.333-85.333 85.333-85.333 85.333 85.333-85.333 85.333z" />
<glyph unicode="&#xe923;" glyph-name="bluetooth-disabled, bluetooth_disabled" data-tags="bluetooth-disabled" d="M554.667 605.866l81.067-81.067-68.267-68.267 59.733-59.733 128 128-243.2 243.2h-42.667v-213.333l85.333-85.333v136.533zM230.4 682.666l-59.733-59.733 281.6-281.6-238.933-238.933 59.733-59.733 196.267 196.267v-324.267h42.667l183.467 183.467 98.133-98.133 59.733 59.733-622.933 622.933zM554.667 76.8v162.133l81.067-81.067-81.067-81.067z" />
<glyph unicode="&#xe924;" glyph-name="bluetooth-search, bluetooth_search" data-tags="bluetooth-search" horiz-adv-x="1029" d="M597.533 341.332l98.133-98.133c12.8 29.867 17.067 64 17.067 98.133s-4.267 68.267-17.067 98.133l-98.133-98.133zM823.666 567.465l-51.2-55.467c25.6-55.467 42.667-110.933 42.667-170.667s-12.8-119.467-42.667-170.667l51.2-51.2c85.333 136.533 85.333 311.467 0 448v0zM661.533 524.799l-243.2 243.2h-42.667v-324.267l-196.267 196.267-59.733-59.733 238.933-238.933-238.933-238.933 59.733-59.733 196.267 196.267v-324.267h42.667l243.2 243.2-183.467 183.467 183.467 183.467zM460.999 605.865l81.067-81.067-81.067-81.067c0 0 0 162.133 0 162.133zM542.066 157.865l-81.067-81.067v162.133l81.067-81.067z" />
<glyph unicode="&#xe925;" glyph-name="bluetooth" data-tags="bluetooth" horiz-adv-x="1035" d="M773.499 524.799l-230.4 243.2h-38.4v-324.267l-187.733 196.267-55.467-59.733 226.133-238.933-226.133-238.933 55.467-59.733 183.467 196.267v-324.267h38.4l230.4 243.2-170.667 183.467c0 0 174.933 183.467 174.933 183.467zM585.766 605.865l76.8-81.067-76.8-81.067v162.133zM658.299 157.865l-76.8-81.067v162.133l76.8-81.067z" />
<glyph unicode="&#xe926;" glyph-name="lightning-bolt, bolt" data-tags="lightning-bolt" horiz-adv-x="1043" d="M394.46 768.513h256.308l-128.154-260.152 256.308 46.564-341.742-640.769 90.561 441.277-263.997-56.816z" />
<glyph unicode="&#xe927;" glyph-name="bopis" data-tags="bopis" horiz-adv-x="1028" d="M172.94 187.733v-158.72c64-53.332 112.212 6.828 112.212 61.012-5.568 55.127-51.73 97.793-107.855 97.793-1.531 0-3.057-0.030-4.574-0.094zM743.396 89.601c0-54.188 48.212-114.348 112.212-61.012v159.148c-1.289 0.054-2.798 0.087-4.316 0.087-56.277 0-102.535-42.896-107.862-97.776zM546.276-11.519v156.588l160.428 66.132-6.828-83.2 3.84 3.84c12.711 34.784 34.39 63.75 62.269 85.003l0.451 56.225-252.16 94.292-251.732-94.292v-55.468c28.33-21.585 50.009-50.55 62.307-84.046l4.253-5.13-6.828 83.2 160.428-66.132v-156.588l-151.892 60.588c-3.631-18.628-9.546-35.2-17.55-50.508l201.015-84.32 200.532 85.332c-7.562 14.421-13.478 31.146-16.881 48.765zM402.916 413.865v55.468h-72.108v-128l165.12 72.532h-93.012zM625.636 413.865h-93.012l165.12-72.532v128h-72.108v-55.468zM642.7 639.573c0-70.93-57.498-128.428-128.428-128.428s-128.428 57.498-128.428 128.428c0 70.93 57.498 128.428 128.428 128.428s128.428-57.498 128.428-128.428z" />
<glyph unicode="&#xe928;" glyph-name="bug" data-tags="bug" horiz-adv-x="1038" d="M902.999 548.266h-136.533c-21.333 38.4-51.2 68.267-85.333 93.867l76.8 76.8-68.267 68.267-102.4-102.4c-21.333 4.267-46.933 8.533-68.267 8.533s-46.933-4.267-68.267-8.533l-102.4 102.4-68.267-68.267 76.8-76.8c-34.133-25.6-64-55.467-85.333-93.867h-136.533v-93.867h102.4c-4.267-17.067-4.267-29.867-4.267-46.933v-46.933h-98.133v-93.867h93.867v-46.933c0-17.067 0-29.867 4.267-46.933h-98.133v-93.867h136.533c81.067-136.533 256-183.467 392.533-102.4 42.667 25.6 81.067 59.733 106.667 102.4h132.267v93.867h-102.4c4.267 17.067 4.267 29.867 4.267 46.933v46.933h98.133v93.867h-98.133v46.933c0 17.067 0 29.867-4.267 46.933h102.4v93.867zM617.132 172.8h-196.267v93.867h192l4.267-93.867zM617.132 360.533h-196.267v93.867h192l4.267-93.867z" />
<glyph unicode="&#xe929;" glyph-name="building-corporate-2, building_corporate_2, building-2, building_2" data-tags="building-corporate-2" horiz-adv-x="1034" d="M645 362.667v268.8l-128 136.532-128-136.532v-89.6h-256v-627.2h768v448zM303.668 4.267h-85.332v89.6h85.332zM303.668 183.467h-85.332v89.6h85.332v-89.6zM303.668 362.667h-85.332v89.6h85.332v-89.6zM559.668 4.267h-85.332v89.6h85.332zM559.668 183.467h-85.332v89.6h85.332v-89.6zM559.668 362.667h-85.332v89.6h85.332v-89.6zM559.668 541.867h-85.332v89.6h85.332v-89.6zM815.668 4.267h-85.332v89.6h85.332zM815.668 183.467h-85.332v89.6h85.332v-89.6z" />
<glyph unicode="&#xe92a;" glyph-name="building-corporate-1, building_corporate_1, building-1, building_1" data-tags="building-corporate-1" d="M512 554.666v170.667h-426.667v-768h853.333v597.333h-426.667zM256 42.666h-85.333v85.333h85.333v-85.333zM256 213.333h-85.333v85.333h85.333v-85.333zM256 384h-85.333v85.333h85.333c0 0 0-85.333 0-85.333zM256 554.666h-85.333v85.333h85.333c0 0 0-85.333 0-85.333zM426.667 42.666h-85.333v85.333h85.333c0 0 0-85.333 0-85.333zM426.667 213.333h-85.333v85.333h85.333c0 0 0-85.333 0-85.333zM426.667 384h-85.333v85.333h85.333c0 0 0-85.333 0-85.333zM426.667 554.666h-85.333v85.333h85.333c0 0 0-85.333 0-85.333zM853.333 42.666h-341.333v85.333h85.333v85.333h-85.333v85.333h85.333v85.333h-85.333v85.333h341.333c0 0 0-426.667 0-426.667zM768 384h-85.333v-85.333h85.333v85.333zM768 213.333h-85.333v-85.333h85.333v85.333z" />
<glyph unicode="&#xe92b;" glyph-name="building-shop, building-3, building_3" data-tags="building-shop" d="M891.732 725.334h-759.466v-98.132h759.466zM938.668 243.2v98.132l-46.935 238.934h-759.466l-46.935-238.934v-98.132h46.935v-285.867h473.601v285.867h187.731v-285.867h93.866v285.867zM512.003 51.199h-285.867v191.998h285.867z" />
<glyph unicode="&#xe92c;" glyph-name="calculator" data-tags="calculator" horiz-adv-x="1026" d="M807.563 768h-614.4v-853.333h640v853.333h-25.6zM619.83 396.8h-72.533v68.267h72.533v-68.267zM474.763 396.8h-68.267v68.267h72.533l-4.267-68.267zM265.696 328.533h72.533v-68.267h-72.533v68.267zM406.496 328.533h72.533v-68.267h-72.533v68.267zM333.963 396.8h-68.267v68.267h72.533v-68.267zM265.696 187.733h72.533v-68.267h-72.533v68.267zM406.496 187.733h72.533v-68.267h-72.533v68.267zM615.563 119.466h-72.533v68.267h72.533v-68.267zM474.763-17.067h-68.267v68.267h72.533c-4.267 0-4.267-68.267-4.267-68.267zM547.296 51.2h72.533v-68.267h-72.533v68.267zM615.563 260.266h-72.533v68.267h72.533v-68.267zM760.63 533.333h-494.933v166.4h499.2v-166.4zM265.696 51.2h72.533v-68.267h-72.533v68.267zM688.096 328.533h72.533v-345.6h-72.533v345.6z" />
<glyph unicode="&#xe92d;" glyph-name="camera-off, camera_off" data-tags="camera-off" d="M528.593 519.76c0.62 0.008 1.355 0.011 2.090 0.011 111.724 0 202.293-90.569 202.293-202.293 0-29.449-6.291-57.425-17.606-82.665l207.352-205.559c9.181 12.615 14.771 28.361 15.002 45.404l0.001 485.105c-0.258 44.744-36.591 80.919-81.37 80.919-0.159 0-0.321-0.001-0.48-0.002h-130.898l-73.643 80.918h-245.478l-73.643-80.918h-21.368l136.378-136.378c23.426 9.784 50.647 15.467 79.195 15.467 0.767 0 1.53-0.005 2.294-0.011zM960.001-74.393l-863.723 863.723-32.276-32.276 118.648-118.648c-36.242-8.517-62.864-40.427-63.188-78.609v-484.63c0.258-44.744 36.591-80.919 81.37-80.919 0.159 0 0.321 0.001 0.48 0.002h625.495l100.918-100.918zM528.593 115.628c-0.947-0.015-2.064-0.026-3.182-0.026-111.222 0-201.383 90.164-201.383 201.383 0 0.169 0 0.337 0.001 0.506-0.002 0.314-0.004 0.716-0.004 1.118 0 49.936 18.426 95.569 48.848 130.471l52.532-52.971c-17.112-21.226-27.535-48.473-27.731-78.147-0.003-0.32-0.004-0.646-0.004-0.974 0-71.052 57.598-128.65 128.65-128.65 0.801 0 1.599 0.008 2.396 0.022 29.399 0.104 56.585 9.997 78.389 26.597l52.413-52.967c-34.944-28.865-80.196-46.374-129.539-46.374-0.487 0-0.974 0.002-1.46 0.006z" />
<glyph unicode="&#xe92e;" glyph-name="camera" data-tags="camera" d="M512 162.133c76.8 0 136.533 59.733 136.533 136.533s-59.733 136.533-136.533 136.533-136.533-59.733-136.533-136.533 59.733-136.533 136.533-136.533v0zM384 725.333l-76.8-85.333h-136.533c-46.933 0-85.333-38.4-85.333-85.333v-512c0-46.933 38.4-85.333 85.333-85.333h682.667c46.933 0 85.333 38.4 85.333 85.333v512c0 46.933-38.4 85.333-85.333 85.333h-136.533l-76.8 85.333h-256zM512 85.333c-119.467 0-213.333 93.867-213.333 213.333s93.867 213.333 213.333 213.333 213.333-93.867 213.333-213.333-93.867-213.333-213.333-213.333z" />
<glyph unicode="&#xe92f;" glyph-name="payment-cash-dispenser" data-tags="payment-cash-dispenser" d="M819.2 34.133h-614.4v179.2h-34.136v-213.336h682.668v213.336h-34.136v-179.2zM785.066 68.267v145.065h-145.065c4.68-12.676 7.477-27.313 7.679-42.576l0.001-0.088c-0.072-40.839-18.172-77.433-46.766-102.259l-0.168-0.141zM238.934 213.333v-145.065h183.465c-28.76 24.968-46.86 61.561-46.936 102.389v0.011c0.504 15.461 3.592 30.055 8.84 43.564l-0.309-0.9zM567.464 213.333h-48.64v-5.544h48.64c0 2.56 0 5.544 0 5.544zM501.76 213.333h-50.344c0.12-7.976 2.157-15.45 5.672-22.020l-0.126 0.26c3.429-6.464 8.018-11.871 13.54-16.129l0.116-0.087c8.377-5.787 18.28-11.867 28.492-17.448l1.8-0.902c6.696-2.799 12.12-7.536 15.704-13.505l0.084-0.151c1.423-5.138 2.241-11.034 2.241-17.128 0-1.331-0.040-2.649-0.118-3.96l0.008 0.183c0.008-0.168 0.009-0.36 0.009-0.557 0-2.996-0.966-5.766-2.6-8.014l0.025 0.040c-1.649-1.848-4.038-3.002-6.696-3.002-0.199 0-0.392 0.008-0.584 0.020l0.024-0.002c-0.27-0.040-0.584-0.058-0.904-0.058-2.872 0-5.326 1.769-6.336 4.28l-0.016 0.045c-0.424 3.268-0.668 7.047-0.668 10.88s0.245 7.612 0.713 11.32l-0.045-0.44v10.664h-49.92v-8.536c-0.19-1.624-0.297-3.503-0.297-5.409 0-13.766 5.669-26.203 14.794-35.112l0.008-0.008c9.367-7.44 21.108-12.266 33.928-13.214l0.204-0.010v-16.64h22.616v16.64c14.61 0.952 27.657 6.952 37.578 16.246l-0.034-0.030c7.743 8.808 12.471 20.438 12.471 33.167 0 1.092-0.036 2.171-0.104 3.245l0.008-0.148c0.012 0.454 0.023 0.984 0.023 1.515 0 8.1-1.736 15.791-4.856 22.728l0.139-0.35c-2.792 5.928-6.68 10.913-11.448 14.876l-0.072 0.056c-7.233 5.257-15.469 10.36-24.079 14.84l-1.096 0.52c-10.156 4.984-18.824 10.234-26.981 16.152l0.525-0.361c-1.559 1.486-2.736 3.353-3.388 5.456l-0.024 0.088zM85.333 298.669v-213.336h42.664v170.665h768v-170.665h42.664v213.336h-853.336zM682.665 511.998l-30.72 30.72-119.465-119.465v259.416h-40.96v-259.416l-119.465 119.465-30.72-30.72 170.665-170.665 170.665 170.665z" />
<glyph unicode="&#xe930;" glyph-name="caret-down, caret_down" data-tags="caret-down" d="M85.333 554.666l426.667-426.667 426.667 426.667z" />
<glyph unicode="&#xe931;" glyph-name="caret-left, caret_left" data-tags="caret-left" d="M725.333 768l-426.667-426.667 426.667-426.667z" />
<glyph unicode="&#xe932;" glyph-name="caret-right, caret_right" data-tags="caret-right" d="M298.667 768l426.667-426.667-426.667-426.667z" />
<glyph unicode="&#xe933;" glyph-name="caret-up, caret_up" data-tags="caret-up" d="M938.667 128l-426.667 426.667-426.667-426.667z" />
<glyph unicode="&#xe934;" glyph-name="shopping-cart, cart" data-tags="shopping-cart" d="M341.333 85.333c-46.933 0-85.333-38.4-85.333-85.333s38.4-85.333 85.333-85.333 85.333 38.4 85.333 85.333c0 46.933-38.4 85.333-85.333 85.333v0zM85.333 768v-85.333h85.333l153.6-324.267-59.733-102.4c-4.267-12.8-8.533-29.867-8.533-42.667 0-46.933 38.4-85.333 85.333-85.333h512v85.333h-494.933c-4.267 0-8.533 4.267-8.533 8.533v4.267l38.4 72.533h320c29.867 0 59.733 17.067 76.8 42.667l153.6 277.333c0 8.533 0 12.8 0 21.333 0 25.6-17.067 42.667-42.667 42.667v0h-631.467l-38.4 85.333h-140.8zM768 85.333c-46.933 0-85.333-38.4-85.333-85.333s38.4-85.333 85.333-85.333c46.933 0 85.333 38.4 85.333 85.333s-38.4 85.333-85.333 85.333c0 0 0 0 0 0z" />
<glyph unicode="&#xe935;" glyph-name="payment-dollar-bills, cash" data-tags="payment-dollar-bills" d="M78.833 85.329h708.661v354.333h-708.661zM114.354 404.143h638.055v-283.727h-638.055zM149.875 369.058v-212.686h188.863c-30.066 25.818-48.992 63.872-48.992 106.341s18.927 80.527 48.803 106.185zM574.81 262.498c-0.18-42.364-19.041-80.285-48.768-105.975l190.415-0.151v212.686h-190.595c30.011-25.938 48.905-64.040 48.947-106.553zM479.944 268.126c-7.555 5.335-16.207 10.519-25.242 15.055-11.659 5.743-20.596 11.215-29.001 17.371-2.491 2.991-4.339 7.459-4.339 12.355 0 0.703 0.041 1.4 0.115 2.087-0.043 0.331-0.067 0.811-0.067 1.298 0 3.007 0.826 5.815 2.264 8.221 1.483 1.795 3.779 2.977 6.355 2.977 0.187 0 0.379-0.007 0.559-0.019 0.295 0.055 0.667 0.079 1.043 0.079 2.657 0 4.982-1.405 6.278-3.511 0.469-2.376 0.727-5.071 0.727-7.831s-0.259-5.455-0.751-8.068l0.043-7.097h50.684q0 5.635 0 8.228c0.019 0.463 0.031 1.007 0.031 1.555 0 11.477-4.459 21.906-11.743 29.658-9.421 8.047-21.585 13.173-34.926 13.831l-0.139 14.299h-20.791v-14.297c-14.683-0.163-28.206-5.012-39.166-13.123-7.85-7.188-12.871-17.693-12.871-29.366 0-0.751 0.019-1.495 0.063-2.227-0.007-0.091-0.007-0.317-0.007-0.541 0-8.811 2.251-17.095 6.199-24.31 3.459-6.475 8.263-12.113 14.040-16.543 8.863-6.103 19.195-12.416 29.856-18.211 8.876-3.871 14.539-8.827 18.259-15.079 1.536-5.45 2.371-11.527 2.371-17.797 0-1.411-0.043-2.815-0.127-4.208 0.031-0.1 0.043-0.439 0.043-0.775 0-3.055-0.991-5.875-2.659-8.167-1.651-1.855-4.087-3.043-6.799-3.043-0.343 0-0.679 0.019-1.015 0.055-0.235-0.043-0.551-0.067-0.872-0.067-2.912 0-5.407 1.797-6.433 4.347-0.456 3.427-0.705 7.339-0.705 11.311s0.249 7.879 0.739 11.719l-0.046 10.375h-51.116v-8.663c-0.283-2.023-0.451-4.358-0.451-6.729 0-14.371 5.983-27.345 15.595-36.57 9.749-7.807 21.966-12.871 35.322-13.867l0.213-17.339h23.394v16.891c15.175 1.003 28.73 7.244 39.018 16.927 8.095 9.159 13.051 21.307 13.051 34.614 0 1.071-0.031 2.131-0.094 3.187 0.031 0.479 0.043 1.214 0.043 1.951 0 8.331-1.771 16.245-4.951 23.394-2.704 6.019-6.815 11.383-11.911 15.604zM118.252 518.498v-39.416h708.661v-354.333h39.416v393.748h-748.080zM197.085 597.337v-39.416h708.661v-392.449h39.416v431.868h-748.080z" />
<glyph unicode="&#xe936;" glyph-name="chat" data-tags="chat" d="M853.333 768h-682.667c-46.933 0-85.333-38.4-85.333-85.333v-768l170.667 170.667h597.333c46.933 0 85.333 38.4 85.333 85.333v512c0 46.933-38.4 85.333-85.333 85.333zM256 469.333h512v-85.333h-512v85.333zM597.333 256h-341.333v85.333h341.333v-85.333zM768 512h-512v85.333h512v-85.333z" />
<glyph unicode="&#xe937;" glyph-name="check-circle-filled, check_circle_filled, check-circle-full, check_circle_full" data-tags="check-circle-filled" d="M512 768c-234.667 0-426.667-192-426.667-426.667s192-426.667 426.667-426.667 426.667 192 426.667 426.667-192 426.667-426.667 426.667zM465.067 145.066l-29.867 29.867-157.867 140.8 55.467 64 128-115.2 230.4 251.733 64-55.467-290.133-315.733z" />
<glyph unicode="&#xe938;" glyph-name="check-circle-outlined, check_circle_outlined, check_circle_outline" data-tags="check-circle-outlined" d="M435.2 174.933l29.867-29.867 285.867 315.733-64 55.467-230.4-251.733-128 115.2-55.467-64 162.133-140.8zM512 768c-234.667 0-426.667-192-426.667-426.667s192-426.667 426.667-426.667 426.667 192 426.667 426.667-192 426.667-426.667 426.667zM512 0c-187.733 0-341.333 153.6-341.333 341.333s153.6 341.333 341.333 341.333 341.333-153.6 341.333-341.333c0 0 0 0 0 0 0-187.733-153.6-341.333-341.333-341.333z" />
<glyph unicode="&#xe939;" glyph-name="check" data-tags="check" d="M353.5 74.525l51.906-53.191 533.616 533.616-108.097 106.381-426.809-425.95-212.332 212.332-106.807-107.666 268.523-265.521z" />
<glyph unicode="&#xe93a;" glyph-name="chevron-down, chevron_down" data-tags="chevron-down" d="M183.467 605.867l328.533-328.533 324.267 328.533 102.4-102.4-426.667-426.667-426.667 426.667z" />
<glyph unicode="&#xe93b;" glyph-name="chevron-left, chevron_left" data-tags="chevron-left" horiz-adv-x="1037" d="M795.998 669.867l-106.667 98.133-448-426.667 448-426.667 106.667 102.4-341.333 324.267z" />
<glyph unicode="&#xe93c;" glyph-name="chevron-right, chevron_right" data-tags="chevron-right" horiz-adv-x="1037" d="M347.998 768l-106.667-98.133 341.333-328.533-341.333-324.267 106.667-102.4 448 426.667z" />
<glyph unicode="&#xe93d;" glyph-name="chevron-up, chevron_up" data-tags="chevron-up" d="M836.266 64l-324.267 341.333-328.533-341.333-98.133 106.667 426.667 448 426.667-448z" />
<glyph unicode="&#xe93e;" glyph-name="laptop-chrome, chromebook" data-tags="laptop-chrome" d="M866.134 110.933v529.067h-708.267v-529.067h-72.533v-68.267h853.333v68.267h-72.533zM584.534 110.933h-140.8v34.133h140.8v-34.133zM797.868 217.6h-571.733v354.133h567.467v-354.133z" />
<glyph unicode="&#xe93f;" glyph-name="close" data-tags="close" d="M853.333 614.398l-68.265 68.265-273.065-273.065-273.065 273.065-68.265-68.265 273.065-273.065-273.065-273.065 68.265-68.265 273.065 273.065 273.065-273.065 68.265 68.265-273.065 273.065z" />
<glyph unicode="&#xe940;" glyph-name="controls-closed-caption" data-tags="controls-closed-caption" horiz-adv-x="1043" d="M807.535 390.399v51.2c0 25.6-21.333 46.933-42.667 46.933 0 0 0 0-4.267 0h-140.8c-25.6 0-46.933-21.333-46.933-46.933 0 0 0 0 0 0v-192c0-25.6 21.333-46.933 46.933-46.933 0 0 0 0 0 0h140.8c25.6 0 46.933 21.333 46.933 46.933 0 0 0 0 0 4.267v51.2h-72.533v-25.6h-93.867v145.067h93.867v-25.6h72.533zM474.735 390.399v51.2c0 25.6-21.333 46.933-46.933 46.933 0 0 0 0 0 0h-145.067c-25.6 0-46.933-21.333-46.933-46.933 0 0 0 0 0-4.267v-192c0-25.6 21.333-46.933 42.667-46.933 0 0 0 0 4.267 0h140.8c25.6 0 46.933 21.333 46.933 46.933 0 0 0 0 0 0v51.2h-68.267v-25.6h-93.867v145.067h93.867v-25.6h72.533zM854.468 727.466c51.2 0 93.867-42.667 93.867-98.133v-576c0-51.2-42.667-93.867-93.867-98.133h-665.6c-51.2 4.267-93.867 46.933-93.867 102.4v571.733c0 55.467 42.667 98.133 93.867 98.133h665.6z" />
<glyph unicode="&#xe941;" glyph-name="cloud-complete, cloud_done" data-tags="cloud-complete" d="M778.666 398.933c-29.867 140.8-170.667 230.4-315.733 204.8-76.8-17.067-145.067-64-183.467-136.533-115.2-12.8-200.533-115.2-187.733-230.4 12.8-102.4 102.4-183.467 209.067-183.467h465.067c98.133 0 179.2 76.8 179.2 174.933 0 89.6-72.533 162.133-166.4 170.667zM445.866 155.733l-123.733 119.467 51.2 46.933 76.8-72.533 183.467 179.2 51.2-46.933-238.933-226.133z" />
<glyph unicode="&#xe942;" glyph-name="cloud-download, cloud_download" data-tags="cloud-download" d="M778.666 398.933c-29.867 140.8-170.667 230.4-315.733 204.8-76.8-17.067-145.067-64-183.467-136.533-115.2-12.8-200.533-115.2-187.733-230.4 12.8-102.4 102.4-183.467 209.067-183.467h465.067c98.133 0 179.2 76.8 179.2 174.933 0 89.6-72.533 162.133-166.4 170.667zM697.599 296.533l-179.2-174.933-179.2 174.933h106.667v136.533h140.8v-140.8h110.933z" />
<glyph unicode="&#xe943;" glyph-name="cloud-upload, cloud_upload" data-tags="cloud-upload" d="M782.932 398.933c-29.867 140.8-170.667 230.4-315.733 204.8-81.067-17.067-149.333-68.267-187.733-136.533-119.467-12.8-200.533-119.467-187.733-230.4 12.8-102.4 102.4-183.467 209.067-183.467h465.067c98.133 0 179.2 76.8 179.2 174.933 0 89.6-72.533 162.133-162.133 170.667zM590.932 296.533v-140.8h-145.067v140.8h-106.667l179.2 174.933 179.2-174.933h-106.667z" />
<glyph unicode="&#xe944;" glyph-name="cloud" data-tags="cloud" d="M778.666 398.933c-29.867 140.8-170.667 230.4-315.733 204.8-76.8-17.067-145.067-64-183.467-136.533-115.2-12.8-200.533-115.2-187.733-230.4 12.8-102.4 102.4-183.467 209.067-183.467h465.067c98.133 0 179.2 76.8 179.2 174.933 0 89.6-72.533 162.133-166.4 170.667z" />
<glyph unicode="&#xe945;" glyph-name="heart-rate, heart_rate" data-tags="heart-rate" d="M523.52 264.533l-119.467-122.88-57.173 242.347-69.547-119.467h-128c80.402-141.953 206.501-250.092 357.964-305.69l4.702-1.51c155.653 56.967 281.398 164.616 360.063 302.586zM247.040 341.333l128 213.333 64.853-291.84 67.413 78.507h404.053c42.667 117.76 37.547 235.093-42.667 311.467-192 174.507-344.747-19.2-358.827-37.547-13.653 18.347-166.827 213.333-358.827 37.547-78.507-76.8-85.333-193.707-42.667-311.467z" />
<glyph unicode="&#xe946;" glyph-name="code-2" data-tags="code-2" d="M401.067 145.066l-196.267 196.267 196.267 196.267-59.733 59.733-256-256 256-256 59.733 59.733zM622.933 145.066l196.267 196.267-196.267 196.267 59.733 59.733 256-256-256-256-59.733 59.733z" />
<glyph unicode="&#xe947;" glyph-name="compare" data-tags="compare" horiz-adv-x="1043" d="M333.933 452.266v68.267h311.467v247.467h-550.4v-550.4h238.933v234.667zM402.199 209.066v-145.067l405.333 384h-149.333l-256-238.933zM730.733-85.334l217.6 209.067v140.8l-366.933-349.867h149.333zM828.866-85.334h119.467v115.2l-119.467-115.2zM948.333 452.266h-51.2l-494.933-477.867v-59.733h85.333l460.8 439.467v98.133zM560.066 452.266h-157.867v-149.333l157.867 149.333z" />
<glyph unicode="&#xe948;" glyph-name="compass" data-tags="compass" d="M512 388.266c-25.6 0-46.933-21.333-46.933-46.933s21.333-46.933 46.933-46.933 46.933 21.333 46.933 46.933c0 25.6-21.333 46.933-46.933 46.933 0 0 0 0 0 0zM512 768c-234.667 0-426.667-192-426.667-426.667s192-426.667 426.667-426.667 426.667 192 426.667 426.667-192 426.667-426.667 426.667zM605.867 247.466l-349.867-162.133 162.133 349.867 349.867 162.133-162.133-349.867z" />
<glyph unicode="&#xe949;" glyph-name="laptop, computer" data-tags="laptop" d="M797.866 130.133c38.4 0 72.533 29.867 72.533 68.267 0 0 0 0 0 0v349.867c0 38.4-29.867 68.267-72.533 68.267h-571.733c-38.4 0-72.533-29.867-72.533-68.267v-345.6c0-38.4 29.867-68.267 72.533-68.267h-140.8v-68.267h853.333v68.267h-140.8zM226.132 548.267h567.467v-345.6h-567.467v345.6z" />
<glyph unicode="&#xe94a;" glyph-name="copy" data-tags="copy" horiz-adv-x="1033" d="M687.333 765.867h-456.533c-42.667 0-76.8-34.133-76.8-76.8v-541.867h76.8v541.867h456.533v76.8zM802.533 612.267h-418.133c-42.667 0-76.8-34.133-76.8-76.8v-541.867c0-42.667 34.133-76.8 76.8-76.8h418.133c42.667 0 76.8 34.133 76.8 76.8v537.6c0 42.667-34.133 81.067-76.8 81.067v0zM802.533-10.667h-418.133v541.867h418.133v-541.867z" />
<glyph unicode="&#xe94b;" glyph-name="payment-cash-register, register" data-tags="payment-cash-register, register" d="M853.332 597.333h-85.332v42.668h85.332v128h-298.668v-128h85.332v-42.668h-469.331v-128h682.668v128zM85.332-42.667c0-23.565 19.103-42.668 42.668-42.668v0h768c23.565 0 42.668 19.103 42.668 42.668v0 128h-853.332zM362.668 42.665h298.668v-42.668h-298.668zM853.332 426.665h-682.668l-85.332-298.668h853.332zM458.668 192.001h-267.948l8.96 34.132h258.988zM458.668 260.265h-249.6l9.388 34.132h240.64zM458.668 328.533h-231.252l9.388 34.132h222.292zM565.76 192.001v170.668h223.148l46.080-170.668z" />
<glyph unicode="&#xe94c;" glyph-name="dashboard" data-tags="dashboard" d="M85.333 294.4h379.733v473.6h-379.733v-473.6zM85.333-85.334h379.733v285.867h-379.733v-285.867zM558.933-85.334h379.733v473.6h-379.733v-473.6zM558.933 768v-285.867h379.733v285.867h-379.733z" />
<glyph unicode="&#xe94d;" glyph-name="calendar-date-available, calendar_date_available, date-available, date_available" data-tags="calendar-date-available" horiz-adv-x="1029" d="M706.333 337.066l-42.667 46.933-209.067-209.067-89.6 89.6-46.933-46.933 136.533-136.533 251.733 256zM813 682.666h-42.667v85.333h-85.333v-85.333h-341.333v85.333h-85.333v-85.333h-42.667c-46.933 0-85.333-38.4-85.333-85.333 0 0 0 0 0 0v-597.333c0-46.933 38.4-85.333 85.333-85.333 0 0 0 0 0 0h597.333c46.933 0 85.333 38.4 85.333 85.333v597.333c0 46.933-38.4 85.333-85.333 85.333v0zM813 0h-597.333v469.333h597.333v-469.333z" />
<glyph unicode="&#xe94e;" glyph-name="calendar-date-note, calendar_date_note, date-note, date_note" data-tags="calendar-date-note" horiz-adv-x="1029" d="M727.666 384h-426.667v-85.333h426.667v85.333zM813 682.666h-42.667v85.333h-85.333v-85.333h-341.333v85.333h-85.333v-85.333h-42.667c-46.933 0-85.333-38.4-85.333-85.333 0 0 0 0 0 0v-597.333c0-46.933 38.4-85.333 85.333-85.333 0 0 0 0 0 0h597.333c46.933 0 85.333 38.4 85.333 85.333v597.333c0 46.933-38.4 85.333-85.333 85.333zM813 0h-597.333v469.333h597.333c0 0 0-469.333 0-469.333zM599.666 213.333h-298.667v-85.333h298.667c0 0 0 85.333 0 85.333z" />
<glyph unicode="&#xe94f;" glyph-name="calendar-date-range, calendar_date_range, date-range, date_range" data-tags="calendar-date-range" horiz-adv-x="1029" d="M386.333 384h-85.333v-85.333h85.333c0 0 0 85.333 0 85.333zM557 384h-85.333v-85.333h85.333v85.333zM727.666 384h-85.333v-85.333h85.333c0 0 0 85.333 0 85.333zM813 682.666h-42.667v85.333h-85.333v-85.333h-341.333v85.333h-85.333v-85.333h-42.667c-46.933 0-85.333-38.4-85.333-85.333 0 0 0 0 0 0v-597.333c0-46.933 38.4-85.333 85.333-85.333 0 0 0 0 0 0h597.333c46.933 0 85.333 38.4 85.333 85.333v597.333c0 46.933-38.4 85.333-85.333 85.333zM813 0h-597.333v469.333h597.333c0 0 0-469.333 0-469.333z" />
<glyph unicode="&#xe950;" glyph-name="calendar-date, calendar_date, date" data-tags="calendar-date" horiz-adv-x="1029" d="M727.666 298.665h-213.333v-213.333h213.333v213.333zM685 767.999v-85.333h-341.333v85.333h-85.333v-85.333h-42.667c-46.933 0-85.333-38.4-85.333-85.333 0 0 0 0 0 0v-597.333c0-46.933 38.4-85.333 85.333-85.333 0 0 0 0 0 0h597.333c46.933 0 85.333 38.4 85.333 85.333v597.333c0 46.933-38.4 85.333-85.333 85.333h-42.667v85.333h-85.333zM813-0.001h-597.333v469.333h597.333c0 0 0-469.333 0-469.333z" />
<glyph unicode="&#xe951;" glyph-name="delete, trash" data-tags="delete" d="M698.949-85.333h-380.225c-51.385 0-93.104 41.716-93.104 93.106v574.024h566.433v-574.024c0-51.39-41.718-93.106-93.104-93.106zM384.925 483.835h-49.483v-461.727h49.483v461.727zM533.579 483.835h-49.483v-461.727h49.483v461.727zM682.232 483.835h-49.482v-461.727h49.482v461.727zM634.208 767.999l43.705-46.552h166.811v-96.474h-665.447v96.474h167.69l42.948 46.552h244.293z" />
<glyph unicode="&#xe952;" glyph-name="desktop-apple, desktop_mac" data-tags="desktop-apple" d="M859.733 727.466h-699.733c-42.667 0-76.8-34.133-76.8-76.8v-465.067c0-42.667 34.133-76.8 76.8-76.8h273.067l-76.8-115.2v-38.4h311.467v38.4l-76.8 115.2h273.067c42.667 0 76.8 34.133 76.8 76.8v465.067c-4.267 42.667-38.4 76.8-81.067 76.8zM859.733 262.399h-699.733v388.267h699.733v-388.267z" />
</font>
</defs>
</svg>
